<svg width="24" height="26" viewBox="0 0 24 26" fill="none" xmlns="http://www.w3.org/2000/svg">
<path fill-rule="evenodd" clip-rule="evenodd" d="M14.2386 2.98068C12.9876 1.80978 11.0124 1.80978 9.76139 2.98068L3.11313 9.20316C2.95024 9.35562 2.84067 9.55422 2.79995 9.77081C2.00366 14.0065 1.94488 18.3427 2.62609 22.5974L2.78778 23.6073H7.06499V14.9011C7.06499 14.3205 7.54752 13.8498 8.14275 13.8498H15.8572C16.4525 13.8498 16.935 14.3205 16.935 14.9011V23.6073H21.2122L21.3739 22.5974C22.0551 18.3427 21.9963 14.0065 21.2 9.77081C21.1593 9.55422 21.0498 9.35562 20.8869 9.20316L14.2386 2.98068ZM8.26898 1.46362C10.354 -0.487874 13.646 -0.487874 15.731 1.46362L22.3793 7.68611C22.8687 8.14417 23.1979 8.74085 23.3202 9.39158C24.1602 13.8596 24.2222 18.4337 23.5036 22.9218L23.2439 24.5442C23.1364 25.2152 22.544 25.7098 21.8478 25.7098H15.8572C15.262 25.7098 14.7795 25.2392 14.7795 24.6586V15.9523H9.22051V24.6586C9.22051 25.2392 8.73798 25.7098 8.14275 25.7098H2.15223C1.45602 25.7098 0.86356 25.2152 0.756136 24.5442L0.496378 22.9218C-0.222198 18.4337 -0.160195 13.8596 0.679783 9.39158C0.80212 8.74085 1.13132 8.14417 1.62072 7.68611L8.26898 1.46362Z" fill="#DC143C"/>
</svg>
