<svg width="24" height="24" viewBox="0 0 24 24" fill="none" xmlns="http://www.w3.org/2000/svg">
<path fill-rule="evenodd" clip-rule="evenodd" d="M4.65 16.7732C4.71986 16.6802 4.81045 16.6047 4.91459 16.5527C5.01873 16.5007 5.13357 16.4736 5.25 16.4736H9C9.19891 16.4736 9.38968 16.5525 9.53033 16.693C9.67098 16.8334 9.75 17.0239 9.75 17.2225C9.75 17.4211 9.67098 17.6115 9.53033 17.752C9.38968 17.8924 9.19891 17.9713 9 17.9713H5.625L2.25 22.4642H21.75L18.375 17.9713H15C14.8011 17.9713 14.6103 17.8924 14.4697 17.752C14.329 17.6115 14.25 17.4211 14.25 17.2225C14.25 17.0239 14.329 16.8334 14.4697 16.693C14.6103 16.5525 14.8011 16.4736 15 16.4736H18.75C18.8664 16.4736 18.9813 16.5007 19.0854 16.5527C19.1896 16.6047 19.2801 16.6802 19.35 16.7732L23.85 22.7637C23.9336 22.875 23.9845 23.0073 23.997 23.1458C24.0095 23.2843 23.9831 23.4235 23.9208 23.5479C23.8585 23.6723 23.7628 23.7769 23.6443 23.85C23.5258 23.9231 23.3893 23.9618 23.25 23.9618H0.75C0.610716 23.9618 0.474184 23.9231 0.355702 23.85C0.23722 23.7769 0.14147 23.6723 0.07918 23.5479C0.0168903 23.4235 -0.00947761 23.2843 0.00303087 23.1458C0.0155393 23.0073 0.06643 22.875 0.15 22.7637L4.65 16.7732Z" fill="#DC143C"/>
<path fill-rule="evenodd" clip-rule="evenodd" d="M6 5.99001C6.00011 4.83716 6.33339 3.70883 6.95984 2.74041C7.5863 1.77199 8.47932 1.00462 9.53176 0.530368C10.5842 0.0561179 11.7513 -0.104862 12.8931 0.0667439C14.0349 0.23835 15.1029 0.735253 15.9688 1.49783C16.8348 2.2604 17.462 3.25626 17.7751 4.3659C18.0883 5.47554 18.0741 6.65182 17.7343 7.75361C17.3945 8.8554 16.7434 9.83588 15.8593 10.5774C14.9752 11.319 13.8956 11.79 12.75 11.9341V20.2176C12.75 20.4162 12.671 20.6067 12.5303 20.7471C12.3897 20.8875 12.1989 20.9664 12 20.9664C11.8011 20.9664 11.6103 20.8875 11.4697 20.7471C11.329 20.6067 11.25 20.4162 11.25 20.2176V11.9356C9.79945 11.7532 8.46553 11.0482 7.49882 9.95312C6.53211 8.85804 5.99913 7.44823 6 5.98851V5.99001Z" fill="#DC143C"/>
</svg>
