<svg width="35" height="35" viewBox="0 0 35 35" fill="none" xmlns="http://www.w3.org/2000/svg">
<g filter="url(#filter0_d_8_5686)">
<circle cx="17.5" cy="18.5" r="7.5" fill="white"/>
</g>
<path d="M22.5102 14.7782C21.5934 15.4419 20.7853 16.1647 20.0123 17.0056C19.2552 17.8257 18.6962 18.5589 18.0477 19.5771C17.904 19.8064 17.773 20.0079 17.7603 20.0218C17.7475 20.0357 17.6389 19.8099 17.5207 19.518C17.4025 19.2261 17.2939 18.9655 17.2811 18.9377C17.2524 18.8786 16.9233 19.4693 16.5879 20.1852L16.3516 20.689L16.6039 21.2971C16.7413 21.6307 16.917 22.072 16.9936 22.2805L17.1342 22.6523L17.7251 22.6454L18.3129 22.635L18.3608 22.4786C18.4886 22.0373 18.8431 21.0539 19.0572 20.5396C19.9356 18.4234 21.0983 16.5678 22.6124 14.8616C22.7945 14.6531 22.9351 14.4863 22.9255 14.4863C22.9159 14.4863 22.7306 14.6184 22.5102 14.7782Z" fill="#003893"/>
<path d="M19.0026 16.2166C17.5555 17.2799 16.396 18.5343 15.4026 20.1085L15.1758 20.4699L15.1087 20.2996C15.0736 20.2092 14.9809 19.9834 14.9075 19.8027L14.7701 19.4726L14.0418 19.4621C13.6425 19.4587 13.3199 19.4656 13.3263 19.4795C13.3295 19.4969 13.4636 19.761 13.6169 20.0737C13.9236 20.6818 14.3516 21.6652 14.5529 22.2073L14.6743 22.5479H15.1566H15.6358L15.7891 22.0787C16.4727 19.9764 17.546 18.0722 18.993 16.4042C19.2134 16.154 19.3891 15.9455 19.3827 15.9455C19.3763 15.9455 19.207 16.0672 19.0026 16.2166Z" fill="#DC143C"/>
<defs>
<filter id="filter0_d_8_5686" x="0" y="0" width="35" height="35" filterUnits="userSpaceOnUse" color-interpolation-filters="sRGB">
<feFlood flood-opacity="0" result="BackgroundImageFix"/>
<feColorMatrix in="SourceAlpha" type="matrix" values="0 0 0 0 0 0 0 0 0 0 0 0 0 0 0 0 0 0 127 0" result="hardAlpha"/>
<feOffset dy="-1"/>
<feGaussianBlur stdDeviation="5"/>
<feComposite in2="hardAlpha" operator="out"/>
<feColorMatrix type="matrix" values="0 0 0 0 0 0 0 0 0 0 0 0 0 0 0 0 0 0 0.1 0"/>
<feBlend mode="normal" in2="BackgroundImageFix" result="effect1_dropShadow_8_5686"/>
<feBlend mode="normal" in="SourceGraphic" in2="effect1_dropShadow_8_5686" result="shape"/>
</filter>
</defs>
</svg>
