<svg width="160" height="24" viewBox="0 0 160 24" fill="none" xmlns="http://www.w3.org/2000/svg">
<g clip-path="url(#clip0_0_98)">
<rect width="24" height="24" fill="white"/>
<path d="M13.0746 4.633C13.3946 3.789 14.6056 3.789 14.9266 4.633L16.9966 10.367C17.0688 10.5538 17.1959 10.7143 17.3613 10.8273C17.5266 10.9403 17.7223 11.0005 17.9226 11H23.0096C23.9496 11 24.3596 12.17 23.6206 12.743L20.0006 16C19.8384 16.1247 19.7199 16.2975 19.6621 16.4937C19.6042 16.6898 19.61 16.8993 19.6786 17.092L21.0006 22.695C21.3226 23.595 20.2806 24.368 19.4926 23.814L14.5756 20.694C14.4072 20.5757 14.2064 20.5122 14.0006 20.5122C13.7948 20.5122 13.594 20.5757 13.4256 20.694L8.50857 23.814C7.72157 24.368 6.67857 23.594 7.00057 22.695L8.32257 17.092C8.39114 16.8993 8.39692 16.6898 8.33907 16.4937C8.28123 16.2975 8.16272 16.1247 8.00057 16L4.38056 12.743C3.64056 12.17 4.05256 11 4.99056 11H10.0776C10.2779 11.0007 10.4736 10.9405 10.639 10.8275C10.8043 10.7144 10.9315 10.5539 11.0036 10.367L13.0736 4.633H13.0746Z" fill="#F0C21F"/>
</g>
<rect width="24" height="24" transform="translate(34)" fill="white"/>
<path d="M45.0741 2.633C45.3941 1.789 46.6051 1.789 46.9261 2.633L48.9961 8.367C49.0683 8.55379 49.1955 8.71428 49.3608 8.8273C49.5261 8.94031 49.7218 9.00053 49.9221 9H55.0091C55.9491 9 56.3591 10.17 55.6201 10.743L52.0001 14C51.8379 14.1247 51.7194 14.2975 51.6616 14.4937C51.6037 14.6898 51.6095 14.8993 51.6781 15.092L53.0001 20.695C53.3221 21.595 52.2801 22.368 51.4921 21.814L46.5751 18.694C46.4067 18.5757 46.2059 18.5122 46.0001 18.5122C45.7943 18.5122 45.5935 18.5757 45.4251 18.694L40.5081 21.814C39.7211 22.368 38.6781 21.594 39.0001 20.695L40.3221 15.092C40.3907 14.8993 40.3964 14.6898 40.3386 14.4937C40.2807 14.2975 40.1622 14.1247 40.0001 14L36.3801 10.743C35.6401 10.17 36.0521 9 36.9901 9H42.0771C42.2774 9.00067 42.4731 8.9405 42.6385 8.82747C42.8038 8.71444 42.931 8.55387 43.0031 8.367L45.0731 2.633H45.0741Z" fill="#F0C21F"/>
<rect width="24" height="24" transform="translate(68)" fill="white"/>
<path d="M79.0741 2.633C79.3941 1.789 80.6051 1.789 80.9261 2.633L82.9961 8.367C83.0683 8.55379 83.1955 8.71428 83.3608 8.8273C83.5261 8.94031 83.7218 9.00053 83.9221 9H89.0091C89.9491 9 90.3591 10.17 89.6201 10.743L86.0001 14C85.8379 14.1247 85.7194 14.2975 85.6616 14.4937C85.6037 14.6898 85.6095 14.8993 85.6781 15.092L87.0001 20.695C87.3221 21.595 86.2801 22.368 85.4921 21.814L80.5751 18.694C80.4067 18.5757 80.2059 18.5122 80.0001 18.5122C79.7943 18.5122 79.5935 18.5757 79.4251 18.694L74.5081 21.814C73.7211 22.368 72.6781 21.594 73.0001 20.695L74.3221 15.092C74.3907 14.8993 74.3964 14.6898 74.3386 14.4937C74.2807 14.2975 74.1622 14.1247 74.0001 14L70.3801 10.743C69.6401 10.17 70.0521 9 70.9901 9H76.0771C76.2774 9.00067 76.4731 8.9405 76.6385 8.82747C76.8038 8.71444 76.931 8.55387 77.0031 8.367L79.0731 2.633H79.0741Z" fill="#F0C21F"/>
<rect width="24" height="24" transform="translate(102)" fill="white"/>
<path d="M113.074 2.633C113.394 1.789 114.605 1.789 114.926 2.633L116.996 8.367C117.068 8.55379 117.195 8.71428 117.361 8.8273C117.526 8.94031 117.722 9.00053 117.922 9H123.009C123.949 9 124.359 10.17 123.62 10.743L120 14C119.838 14.1247 119.719 14.2975 119.662 14.4937C119.604 14.6898 119.609 14.8993 119.678 15.092L121 20.695C121.322 21.595 120.28 22.368 119.492 21.814L114.575 18.694C114.407 18.5757 114.206 18.5122 114 18.5122C113.794 18.5122 113.593 18.5757 113.425 18.694L108.508 21.814C107.721 22.368 106.678 21.594 107 20.695L108.322 15.092C108.391 14.8993 108.396 14.6898 108.339 14.4937C108.281 14.2975 108.162 14.1247 108 14L104.38 10.743C103.64 10.17 104.052 9 104.99 9H110.077C110.277 9.00067 110.473 8.9405 110.638 8.82747C110.804 8.71444 110.931 8.55387 111.003 8.367L113.073 2.633H113.074Z" stroke="#1B1D1F" stroke-linecap="round" stroke-linejoin="round"/>
<rect width="24" height="24" transform="translate(136)" fill="white"/>
<path d="M147.074 2.633C147.394 1.789 148.605 1.789 148.926 2.633L150.996 8.367C151.068 8.55379 151.195 8.71428 151.361 8.8273C151.526 8.94031 151.722 9.00053 151.922 9H157.009C157.949 9 158.359 10.17 157.62 10.743L154 14C153.838 14.1247 153.719 14.2975 153.662 14.4937C153.604 14.6898 153.609 14.8993 153.678 15.092L155 20.695C155.322 21.595 154.28 22.368 153.492 21.814L148.575 18.694C148.407 18.5757 148.206 18.5122 148 18.5122C147.794 18.5122 147.593 18.5757 147.425 18.694L142.508 21.814C141.721 22.368 140.678 21.594 141 20.695L142.322 15.092C142.391 14.8993 142.396 14.6898 142.339 14.4937C142.281 14.2975 142.162 14.1247 142 14L138.38 10.743C137.64 10.17 138.052 9 138.99 9H144.077C144.277 9.00067 144.473 8.9405 144.638 8.82747C144.804 8.71444 144.931 8.55387 145.003 8.367L147.073 2.633H147.074Z" stroke="#1B1D1F" stroke-linecap="round" stroke-linejoin="round"/>
<defs>
<clipPath id="clip0_0_98">
<rect width="24" height="24" fill="white"/>
</clipPath>
</defs>
</svg>
