<svg width="16" height="16" viewBox="0 0 16 16" fill="none" xmlns="http://www.w3.org/2000/svg">
<rect width="16" height="15.9745" fill="white"/>
<path d="M7.38267 1.75238C7.59601 1.19061 8.40334 1.19061 8.61734 1.75238L9.99734 5.56896C10.0455 5.69329 10.1303 5.80011 10.2405 5.87534C10.3507 5.95056 10.4812 5.99064 10.6147 5.99029H14.006C14.6327 5.99029 14.906 6.76905 14.4133 7.15044L12 9.31832C11.8919 9.40129 11.8129 9.51632 11.7743 9.6469C11.7358 9.77748 11.7396 9.9169 11.7853 10.0452L12.6667 13.7745C12.8813 14.3736 12.1867 14.8881 11.6613 14.5194L8.38334 12.4427C8.27108 12.3639 8.13721 12.3216 8.00001 12.3216C7.8628 12.3216 7.72893 12.3639 7.61667 12.4427L4.33867 14.5194C3.81401 14.8881 3.11867 14.3729 3.33334 13.7745L4.21467 10.0452C4.26039 9.9169 4.26424 9.77748 4.22568 9.6469C4.18711 9.51632 4.10811 9.40129 4.00001 9.31832L1.58667 7.15044C1.09334 6.76905 1.36801 5.99029 1.99334 5.99029H5.38467C5.5182 5.99073 5.64872 5.95069 5.75895 5.87545C5.86918 5.80022 5.95394 5.69334 6.00201 5.56896L7.38201 1.75238H7.38267Z" fill="#F0C21F" stroke="#F0C21F" stroke-linecap="round" stroke-linejoin="round"/>
</svg>
