<svg width="24" height="24" viewBox="0 0 24 24" fill="none" xmlns="http://www.w3.org/2000/svg">
<path fill-rule="evenodd" clip-rule="evenodd" d="M21.0938 12.7558C21.0737 12.749 21.0521 12.7453 21.0296 12.7453H12.4765C12.4541 12.7453 12.4325 12.749 12.4123 12.7558C12.3334 12.7826 12.2765 12.8573 12.2765 12.9453V19.3674C12.2765 19.4655 12.3476 19.5491 12.4444 19.5648L20.9975 20.9575C21.1192 20.9773 21.2296 20.8834 21.2296 20.7601V12.9453C21.2296 12.8573 21.1728 12.7826 21.0938 12.7558ZM19.7296 19.2313V14.2453H13.7765V18.262L19.7296 19.2313ZM12.4123 11.2465C12.4325 11.2533 12.4541 11.257 12.4765 11.257H21.0296C21.0521 11.257 21.0737 11.2533 21.0938 11.2465C21.1728 11.2198 21.2296 11.145 21.2296 11.057V3.2382C21.2296 3.11468 21.1188 3.0207 20.9969 3.04089L12.4438 4.4582C12.3473 4.47419 12.2765 4.55767 12.2765 4.65551V11.057C12.2765 11.145 12.3334 11.2198 12.4123 11.2465ZM19.7296 4.77134L13.7765 5.75782V9.75703H19.7296V4.77134ZM10.2404 11.2463C10.3227 11.2215 10.3828 11.1451 10.3828 11.0547V4.96788C10.3828 4.84437 10.2719 4.75038 10.1501 4.77057L2.98213 5.9582C2.8856 5.9742 2.81482 6.05767 2.81482 6.15551V11.0547C2.81482 11.1451 2.87485 11.2215 2.95723 11.2463C2.97547 11.2517 2.9948 11.2547 3.01482 11.2547H10.1828C10.2028 11.2547 10.2221 11.2517 10.2404 11.2463ZM8.88278 6.501L4.31482 7.25785V9.75468H8.88278V6.501ZM10.2404 12.7537C10.2221 12.7483 10.2028 12.7453 10.1828 12.7453H3.01482C2.9948 12.7453 2.97547 12.7483 2.95723 12.7537C2.87485 12.7785 2.81482 12.8549 2.81482 12.9453V17.8909C2.81482 17.9889 2.88589 18.0725 2.98266 18.0883L10.1506 19.2559C10.2723 19.2758 10.3828 19.1818 10.3828 19.0585V12.9453C10.3828 12.8549 10.3227 12.7785 10.2404 12.7537ZM8.88278 17.5296V14.2453H4.31482V16.7855L8.88278 17.5296Z" fill="black"/>
</svg>
