<svg width="24" height="24" viewBox="0 0 24 24" fill="none" xmlns="http://www.w3.org/2000/svg">
<path fill-rule="evenodd" clip-rule="evenodd" d="M6.76954 3.08151C10.2177 2.69614 13.7824 2.69614 17.2305 3.08151C19.1289 3.29369 20.6601 4.78947 20.8829 6.69452C21.2952 10.2195 21.2952 13.7806 20.8829 17.3056C20.6601 19.2106 19.1289 20.7064 17.2305 20.9186C13.7824 21.304 10.2177 21.304 6.76954 20.9186C4.87114 20.7064 3.33995 19.2106 3.11713 17.3056C2.70485 13.7806 2.70485 10.2195 3.11713 6.69452C3.33995 4.78947 4.87114 3.29369 6.76954 3.08151ZM16.5749 7.25003C16.6367 7.59473 16.5568 7.93086 16.2367 7.96109L15.7054 8.05698L15.4846 16.374C15.0168 16.6242 14.5911 16.7615 14.2397 16.7493C13.673 16.7296 13.5363 16.5344 13.1293 15.9535L9.82408 10.0074L9.6745 15.6431L10.7624 15.9474C10.7624 15.9474 10.7444 16.6282 9.8619 16.5975L7.42244 16.6648C7.35563 16.5103 7.43656 16.1329 7.68674 16.0686L8.32658 15.9004L8.52431 8.45081L7.64386 8.34411C7.5821 7.99941 7.77252 7.51503 8.26605 7.49448L10.8834 7.39512L14.328 13.4217L14.4666 8.20066L13.5514 8.05443C13.4916 7.63739 13.7802 7.34321 14.1354 7.32029L16.5749 7.25003Z" fill="black"/>
</svg>
