<svg width="100" height="100" viewBox="0 0 100 100" fill="none" xmlns="http://www.w3.org/2000/svg">
<path d="M74.2083 18.6249C73.875 18.6249 73.5416 18.5416 73.25 18.3749C65.25 14.2499 58.3333 12.4999 50.0416 12.4999C41.7916 12.4999 33.9583 14.4583 26.8333 18.3749C25.8333 18.9166 24.5833 18.5416 24 17.5416C23.4583 16.5416 23.8333 15.2499 24.8333 14.7083C32.5833 10.4999 41.0833 8.33325 50.0416 8.33325C58.9166 8.33325 66.6667 10.2916 75.1667 14.6666C76.2083 15.2083 76.5833 16.4583 76.0416 17.4583C75.6666 18.2083 74.9583 18.6249 74.2083 18.6249ZM14.5833 40.4999C14.1666 40.4999 13.75 40.3749 13.375 40.1249C12.4166 39.4583 12.2083 38.1666 12.875 37.2083C17 31.3749 22.25 26.7916 28.5 23.5833C41.5833 16.8333 58.3333 16.7916 71.4583 23.5416C77.7083 26.7499 82.9583 31.2916 87.0833 37.0833C87.75 37.9999 87.5416 39.3333 86.5833 39.9999C85.625 40.6666 84.3333 40.4583 83.6666 39.4999C79.9166 34.2499 75.1667 30.1249 69.5416 27.2499C57.5833 21.1249 42.2916 21.1249 30.375 27.2916C24.7083 30.2083 19.9583 34.3749 16.2083 39.6249C15.875 40.2083 15.25 40.4999 14.5833 40.4999ZM40.625 90.7916C40.0833 90.7916 39.5416 90.5833 39.1666 90.1666C35.5416 86.5416 33.5833 84.2083 30.7916 79.1666C27.9166 74.0416 26.4166 67.7916 26.4166 61.0833C26.4166 48.7083 37 38.6249 50 38.6249C63 38.6249 73.5833 48.7083 73.5833 61.0833C73.5833 62.2499 72.6666 63.1666 71.5 63.1666C70.3333 63.1666 69.4166 62.2499 69.4166 61.0833C69.4166 50.9999 60.7083 42.7916 50 42.7916C39.2916 42.7916 30.5833 50.9999 30.5833 61.0833C30.5833 67.0833 31.9166 72.6249 34.4583 77.1249C37.125 81.9166 38.9583 83.9583 42.1666 87.2083C42.9583 88.0416 42.9583 89.3333 42.1666 90.1666C41.7083 90.5833 41.1666 90.7916 40.625 90.7916ZM70.5 83.0833C65.5416 83.0833 61.1666 81.8333 57.5833 79.3749C51.375 75.1666 47.6666 68.3333 47.6666 61.0833C47.6666 59.9166 48.5833 58.9999 49.75 58.9999C50.9166 58.9999 51.8333 59.9166 51.8333 61.0833C51.8333 66.9583 54.8333 72.4999 59.9166 75.9166C62.875 77.9166 66.3333 78.8749 70.5 78.8749C71.5 78.8749 73.1666 78.7499 74.8333 78.4583C75.9583 78.2499 77.0416 78.9999 77.25 80.1666C77.4583 81.2916 76.7083 82.3749 75.5416 82.5833C73.1666 83.0416 71.0833 83.0833 70.5 83.0833ZM62.125 91.6666C61.9583 91.6666 61.75 91.6249 61.5833 91.5833C54.9583 89.7499 50.625 87.2916 46.0833 82.8333C40.25 77.0416 37.0416 69.3333 37.0416 61.0833C37.0416 54.3333 42.7916 48.8333 49.875 48.8333C56.9583 48.8333 62.7083 54.3333 62.7083 61.0833C62.7083 65.5416 66.5833 69.1666 71.375 69.1666C76.1666 69.1666 80.0416 65.5416 80.0416 61.0833C80.0416 45.3749 66.5 32.6249 49.8333 32.6249C38 32.6249 27.1666 39.2083 22.2916 49.4166C20.6666 52.7916 19.8333 56.7499 19.8333 61.0833C19.8333 64.3333 20.125 69.4583 22.625 76.1249C23.0416 77.2083 22.5 78.4166 21.4166 78.7916C20.3333 79.2083 19.125 78.6249 18.75 77.5833C16.7083 72.1249 15.7083 66.7083 15.7083 61.0833C15.7083 56.0833 16.6666 51.5416 18.5416 47.5833C24.0833 35.9583 36.375 28.4166 49.8333 28.4166C68.7916 28.4166 84.2083 43.0416 84.2083 61.0416C84.2083 67.7916 78.4583 73.2916 71.375 73.2916C64.2916 73.2916 58.5416 67.7916 58.5416 61.0416C58.5416 56.5833 54.6666 52.9583 49.875 52.9583C45.0833 52.9583 41.2083 56.5833 41.2083 61.0416C41.2083 68.1666 43.9583 74.8333 49 79.8333C52.9583 83.7499 56.75 85.9166 62.625 87.5416C63.75 87.8333 64.375 88.9999 64.0833 90.0833C63.875 91.0416 63 91.6666 62.125 91.6666Z" fill="#DC143C"/>
</svg>
