<svg width="24" height="23" viewBox="0 0 24 23" fill="none" xmlns="http://www.w3.org/2000/svg">
<path fill-rule="evenodd" clip-rule="evenodd" d="M5.30379 0C5.85852 0 6.30823 0.442228 6.30823 0.987744V3.184C10.0953 2.85234 13.9048 2.85235 17.6919 3.184V0.987744C17.6919 0.442228 18.1416 0 18.6963 0C19.251 0 19.7007 0.442228 19.7007 0.987744V3.37997C21.7003 3.658 23.28 5.21327 23.5474 7.19714L23.6633 8.05708C24.1508 11.674 24.1087 15.3409 23.5383 18.946C23.2557 20.7319 21.7803 22.1037 19.9512 22.281L18.3535 22.436C14.1281 22.8458 9.87193 22.8458 5.64654 22.436L4.04881 22.281C2.21974 22.1037 0.744338 20.732 0.461744 18.946C-0.108721 15.3409 -0.150828 11.674 0.336707 8.05708L0.452621 7.19714C0.720038 5.21325 2.29975 3.65796 4.29935 3.37996V0.987744C4.29935 0.442228 4.74905 0 5.30379 0ZM5.89997 5.20581C9.95681 4.81239 14.0432 4.81239 18.1 5.20581L19.3127 5.32341C20.4734 5.43598 21.4027 6.31964 21.5559 7.45673L21.6718 8.31666C21.7123 8.61708 21.749 8.91787 21.7818 9.21894H2.21824C2.25103 8.91787 2.28767 8.61708 2.32816 8.31667L2.44408 7.45673C2.59735 6.31964 3.52655 5.43598 4.68735 5.32341L5.89997 5.20581ZM2.05856 11.1944C1.92707 13.681 2.05661 16.1769 2.44673 18.6423C2.58848 19.5381 3.32852 20.2261 4.24596 20.3151L5.84369 20.47C9.93797 20.8671 14.062 20.8671 18.1563 20.47L19.754 20.3151C20.6715 20.2261 21.4115 19.5381 21.5533 18.6423C21.9434 16.1769 22.0729 13.681 21.9414 11.1944H2.05856Z" fill="#DC143C"/>
</svg>
