<svg width="24" height="24" viewBox="0 0 24 24" fill="none" xmlns="http://www.w3.org/2000/svg">
<path fill-rule="evenodd" clip-rule="evenodd" d="M4.65 16.6121C4.71986 16.52 4.81045 16.4452 4.91459 16.3937C5.01873 16.3422 5.13357 16.3154 5.25 16.3154H9C9.19891 16.3154 9.38968 16.3936 9.53033 16.5326C9.67098 16.6717 9.75 16.8604 9.75 17.0571C9.75 17.2538 9.67098 17.4424 9.53033 17.5815C9.38968 17.7206 9.19891 17.7987 9 17.7987H5.625L2.25 22.2485H21.75L18.375 17.7987H15C14.8011 17.7987 14.6103 17.7206 14.4697 17.5815C14.329 17.4424 14.25 17.2538 14.25 17.0571C14.25 16.8604 14.329 16.6717 14.4697 16.5326C14.6103 16.3936 14.8011 16.3154 15 16.3154H18.75C18.8664 16.3154 18.9813 16.3422 19.0854 16.3937C19.1896 16.4452 19.2801 16.52 19.35 16.6121L23.85 22.5451C23.9336 22.6553 23.9845 22.7863 23.997 22.9235C24.0095 23.0607 23.9831 23.1986 23.9208 23.3218C23.8585 23.445 23.7628 23.5486 23.6443 23.621C23.5258 23.6934 23.3893 23.7318 23.25 23.7318H0.75C0.610716 23.7318 0.474184 23.6934 0.355702 23.621C0.23722 23.5486 0.14147 23.445 0.07918 23.3218C0.0168903 23.1986 -0.00947761 23.0607 0.00303087 22.9235C0.0155393 22.7863 0.06643 22.6553 0.15 22.5451L4.65 16.6121Z" fill="#DC143C"/>
<path fill-rule="evenodd" clip-rule="evenodd" d="M6 5.9325C6.00011 4.79072 6.33339 3.67322 6.95984 2.7141C7.5863 1.75498 8.47932 0.994973 9.53176 0.525276C10.5842 0.0555791 11.7513 -0.103856 12.8931 0.066103C14.0349 0.236062 15.1029 0.728194 15.9688 1.48345C16.8348 2.2387 17.462 3.22499 17.7751 4.32398C18.0883 5.42296 18.0741 6.58795 17.7343 7.67916C17.3945 8.77037 16.7434 9.74145 15.8593 10.4759C14.9752 11.2103 13.8956 11.6768 12.75 11.8196V20.0235C12.75 20.2202 12.671 20.4088 12.5303 20.5479C12.3897 20.687 12.1989 20.7651 12 20.7651C11.8011 20.7651 11.6103 20.687 11.4697 20.5479C11.329 20.4088 11.25 20.2202 11.25 20.0235V11.821C9.79945 11.6403 8.46553 10.9421 7.49882 9.85755C6.53211 8.77299 5.99913 7.37672 6 5.93101V5.9325Z" fill="#DC143C"/>
</svg>
