<svg width="24" height="24" viewBox="0 0 24 24" fill="none" xmlns="http://www.w3.org/2000/svg">
<path fill-rule="evenodd" clip-rule="evenodd" d="M12.5331 13.3094C10.3929 14.953 8.00761 16.2503 5.46437 17.1535L4.99832 17.3191C3.9748 17.6826 2.89799 16.9901 2.76001 15.938C2.42033 13.3479 2.42033 10.6521 2.76001 8.06199C2.89799 7.00992 3.97479 6.31743 4.99832 6.68095L5.46437 6.84648C8.00761 7.74974 10.3929 9.04701 12.5331 10.6907C12.5707 9.80787 12.6463 8.929 12.76 8.06199C12.898 7.00992 13.9748 6.31743 14.9983 6.68095L15.4644 6.84648C18.0369 7.76013 20.4478 9.07691 22.6069 10.7475C23.4262 11.3815 23.4262 12.6185 22.6069 13.2525C20.4478 14.9231 18.0369 16.2399 15.4644 17.1535L14.9983 17.3191C13.9748 17.6826 12.898 16.9901 12.76 15.938C12.6463 15.071 12.5707 14.1921 12.5331 13.3094ZM11.6889 11.9339C11.7322 11.9673 11.7322 12.0327 11.6889 12.0662C9.65557 13.6395 7.38505 14.8796 4.96235 15.74L4.4963 15.9056C4.39609 15.9412 4.26436 15.8733 4.24728 15.743C3.92457 13.2824 3.92457 10.7176 4.24728 8.25704C4.26436 8.12674 4.39609 8.05886 4.4963 8.09445L4.96235 8.25997C7.38505 9.12043 9.65557 10.3605 11.6889 11.9339ZM21.6889 11.9339C21.7322 11.9673 21.7322 12.0327 21.6889 12.0662C19.6556 13.6395 17.385 14.8796 14.9623 15.74L14.4963 15.9056C14.3961 15.9412 14.2644 15.8733 14.2473 15.743C13.9246 13.2824 13.9246 10.7176 14.2473 8.25704C14.2644 8.12674 14.3961 8.05886 14.4963 8.09445L14.9623 8.25997C17.385 9.12043 19.6556 10.3605 21.6889 11.9339Z" fill="black"/>
</svg>
