<svg width="24" height="24" viewBox="0 0 24 24" fill="none" xmlns="http://www.w3.org/2000/svg">
<path fill-rule="evenodd" clip-rule="evenodd" d="M19.4697 4.03035C19.6103 4.171 19.6893 4.36176 19.6893 4.56068V8.3891C19.6893 8.80332 19.3536 9.1391 18.9393 9.1391C18.5251 9.1391 18.1893 8.80332 18.1893 8.3891V6.37134L15.0303 9.53035C14.7374 9.82324 14.2626 9.82324 13.9697 9.53035C13.6768 9.23745 13.6768 8.76258 13.9697 8.46969L17.1287 5.31068L15.1109 5.31068C14.6967 5.31068 14.3609 4.97489 14.3609 4.56068C14.3609 4.14646 14.6967 3.81068 15.1109 3.81068L18.9393 3.81068C19.1383 3.81068 19.329 3.88969 19.4697 4.03035Z" fill="black"/>
<path d="M5.0002 9.8605C6.9166 14.0344 10.3266 17.3529 14.5661 19.1519L15.2457 19.4547C16.8006 20.1474 18.6283 19.6211 19.5766 18.2076L20.4647 16.8839C20.7535 16.4536 20.6656 15.8739 20.2622 15.5485L17.2503 13.1187C16.808 12.7618 16.1575 12.8449 15.819 13.3016L14.8873 14.5589C12.4965 13.3795 10.5554 11.4385 9.3761 9.04765L10.6333 8.11593C11.09 7.77751 11.1731 7.12699 10.8162 6.68461L8.38638 3.67267C8.06103 3.26939 7.48153 3.18142 7.05116 3.46999L5.71832 4.36368C4.29598 5.31739 3.7726 7.16024 4.48133 8.71919L4.99942 9.85881L5.0002 9.8605Z" fill="black"/>
</svg>
