<svg width="3" height="13" viewBox="0 0 3 13" fill="none" xmlns="http://www.w3.org/2000/svg">
<path d="M3 11.4817C3 11.8789 2.84196 12.2598 2.56066 12.5407C2.27936 12.8215 1.89782 12.9793 1.5 12.9793C1.10218 12.9793 0.720644 12.8215 0.43934 12.5407C0.158035 12.2598 0 11.8789 0 11.4817C0 11.0845 0.158035 10.7036 0.43934 10.4227C0.720644 10.1419 1.10218 9.98408 1.5 9.98408C1.89782 9.98408 2.27936 10.1419 2.56066 10.4227C2.84196 10.7036 3 11.0845 3 11.4817ZM3 6.48965C3 6.88684 2.84196 7.26776 2.56066 7.54862C2.27936 7.82948 1.89782 7.98726 1.5 7.98726C1.10218 7.98726 0.720644 7.82948 0.43934 7.54862C0.158035 7.26776 0 6.88684 0 6.48965C0 6.09246 0.158035 5.71153 0.43934 5.43068C0.720644 5.14982 1.10218 4.99204 1.5 4.99204C1.89782 4.99204 2.27936 5.14982 2.56066 5.43068C2.84196 5.71153 3 6.09246 3 6.48965ZM3 1.49761C3 1.8948 2.84196 2.27573 2.56066 2.55658C2.27936 2.83744 1.89782 2.99522 1.5 2.99522C1.10218 2.99522 0.720644 2.83744 0.43934 2.55658C0.158035 2.27573 0 1.8948 0 1.49761C0 1.10042 0.158035 0.719497 0.43934 0.43864C0.720644 0.157784 1.10218 0 1.5 0C1.89782 0 2.27936 0.157784 2.56066 0.43864C2.84196 0.719497 3 1.10042 3 1.49761Z" fill="#DC143C"/>
</svg>
