<svg width="24" height="24" viewBox="0 0 24 24" fill="none" xmlns="http://www.w3.org/2000/svg">
<path fill-rule="evenodd" clip-rule="evenodd" d="M16.4565 2.88267C13.5007 2.45793 10.4993 2.45793 7.54353 2.88267C6.07804 3.09326 4.94894 4.28265 4.81482 5.75711L4.68785 7.15284C4.3945 10.3776 4.3945 13.6224 4.68785 16.8471L4.81482 18.2429C4.94894 19.7173 6.07804 20.9067 7.54353 21.1173C10.4993 21.5421 13.5007 21.5421 16.4565 21.1173C17.922 20.9067 19.0511 19.7173 19.1852 18.2429L19.3122 16.8471C19.6055 13.6224 19.6055 10.3776 19.3122 7.15284L19.1852 5.75711C19.0511 4.28265 17.922 3.09326 16.4565 2.88267ZM10 9C10 7.89543 10.8954 7 12 7C13.1046 7 14 7.89543 14 9C14 10.1046 13.1046 11 12 11C10.8954 11 10 10.1046 10 9ZM8 15.5C8 13.8431 9.34315 12.5 11 12.5H13C14.6569 12.5 16 13.8431 16 15.5C16 16.0523 15.5523 16.5 15 16.5H9C8.44772 16.5 8 16.0523 8 15.5Z" fill="black"/>
</svg>
