<svg width="24" height="24" viewBox="0 0 24 24" fill="none" xmlns="http://www.w3.org/2000/svg">
<path d="M16 15.5C17.7848 15.5 19.2778 14.137 19.464 12.3681C19.4896 12.1245 19.4896 11.8755 19.464 11.6319C19.2778 9.86302 17.7848 8.5 16 8.5C14.2152 8.5 12.7222 9.86302 12.536 11.6319C12.5103 11.8755 12.5103 12.1245 12.536 12.3681C12.7222 14.137 14.2152 15.5 16 15.5Z" fill="black"/>
<path fill-rule="evenodd" clip-rule="evenodd" d="M15.9256 18.75H8.07431C4.75281 18.75 1.92494 16.3336 1.40691 13.0527C1.29678 12.3552 1.29678 11.6448 1.40691 10.9473C1.92494 7.6664 4.75282 5.25 8.07431 5.25H15.9256C19.2471 5.25 22.075 7.6664 22.593 10.9473C22.7032 11.6448 22.7032 12.3552 22.593 13.0527C22.075 16.3336 19.2471 18.75 15.9256 18.75ZM15.9256 17.25C18.509 17.25 20.7085 15.3706 21.1114 12.8188C21.1971 12.2763 21.1971 11.7237 21.1114 11.1812C20.7085 8.62942 18.509 6.75 15.9256 6.75L8.07431 6.75C5.49093 6.75 3.29147 8.62942 2.88855 11.1812C2.8029 11.7237 2.8029 12.2763 2.88855 12.8188C3.29147 15.3706 5.49092 17.25 8.07431 17.25H15.9256Z" fill="black"/>
</svg>
