<svg width="24" height="24" viewBox="0 0 24 24" fill="none" xmlns="http://www.w3.org/2000/svg">
<path fill-rule="evenodd" clip-rule="evenodd" d="M12.6448 5.26362C12.2481 5.02476 11.7519 5.02476 11.3552 5.26362L10.8389 5.57452C9.45765 6.40622 7.90703 6.91659 6.30183 7.06782L5.97655 7.09847C5.84813 7.11057 5.75 7.21838 5.75 7.34736V8.99125C5.75 11.4988 6.76803 13.8989 8.57088 15.6417L11.8262 18.7887C11.9231 18.8824 12.0769 18.8824 12.1738 18.7887L15.4291 15.6417C17.232 13.8989 18.25 11.4988 18.25 8.99125V7.34736C18.25 7.21838 18.1519 7.11057 18.0235 7.09847L17.6982 7.06782C16.093 6.91659 14.5423 6.40622 13.1611 5.57452L12.6448 5.26362ZM10.5814 3.97861C11.4541 3.4531 12.5459 3.45309 13.4186 3.9786L13.9349 4.2895C15.1234 5.00515 16.4576 5.4443 17.8389 5.57443L18.1641 5.60508C19.0631 5.68977 19.75 6.44446 19.75 7.34736V8.99125C19.75 11.9054 18.5669 14.6947 16.4717 16.7202L13.2163 19.8672C12.538 20.5229 11.462 20.5229 10.7837 19.8672L7.52832 16.7202C5.43311 14.6947 4.25 11.9054 4.25 8.99125V7.34736C4.25 6.44446 4.93693 5.68977 5.83585 5.60508L6.16113 5.57443C7.54235 5.4443 8.87661 5.00515 10.0651 4.2895L10.5814 3.97861Z" fill="#455A64"/>
</svg>
