<svg width="16" height="16" viewBox="0 0 16 16" fill="none" xmlns="http://www.w3.org/2000/svg">
<path d="M0.0272278 10.0239C0.0541404 10.1244 0.10091 10.2186 0.164837 10.3011C0.228764 10.3836 0.308583 10.4528 0.39969 10.5046L1.92959 11.379V13.1206C1.92959 13.3307 2.01398 13.5322 2.16419 13.6807C2.31441 13.8292 2.51814 13.9127 2.73058 13.9127H4.49196L5.37626 15.4254C5.44717 15.5453 5.54842 15.6448 5.67004 15.7142C5.79167 15.7837 5.92948 15.8206 6.06992 15.8214C6.20929 15.8214 6.34786 15.785 6.47121 15.7145L7.99951 14.8409L9.5294 15.7153C9.71333 15.8202 9.93181 15.8486 10.1369 15.7944C10.342 15.7402 10.5171 15.6078 10.6236 15.4262L11.5071 13.9135H13.2684C13.4809 13.9135 13.6846 13.83 13.8348 13.6815C13.985 13.5329 14.0694 13.3315 14.0694 13.1214V11.3798L15.5993 10.5054C15.6905 10.4534 15.7703 10.384 15.8343 10.3014C15.8984 10.2188 15.9453 10.1245 15.9724 10.024C15.9996 9.92345 16.0064 9.81859 15.9926 9.71543C15.9787 9.61226 15.9444 9.5128 15.8917 9.42275L15.0082 7.91079L15.8925 6.39963C15.9988 6.21782 16.0277 6.00172 15.9728 5.79884C15.918 5.59596 15.784 5.42291 15.6001 5.31775L14.0702 4.44336V2.70094C14.0702 2.49088 13.9858 2.28943 13.8356 2.1409C13.6854 1.99237 13.4817 1.90893 13.2692 1.90893H11.5079L10.6244 0.396975C10.5177 0.215538 10.343 0.0829459 10.1382 0.0278968C10.0366 0.000664202 9.93051 -0.00635786 9.82615 0.00723765C9.72179 0.0208332 9.6212 0.0547759 9.5302 0.107098L7.99951 0.980688L6.47041 0.106306C6.28654 0.00121747 6.06798 -0.0273637 5.8628 0.0268467C5.65762 0.0810572 5.48261 0.213621 5.37626 0.39539L4.49196 1.90813H2.73058C2.51814 1.90813 2.31441 1.99158 2.16419 2.14011C2.01398 2.28864 1.92959 2.49009 1.92959 2.70015V4.44178L0.39969 5.31616C0.215912 5.42178 0.0819548 5.59511 0.027157 5.79818C-0.0276408 6.00126 0.00118713 6.21753 0.107327 6.39963L0.991623 7.91079L0.107327 9.42195C0.00158603 9.60437 -0.027193 9.82063 0.0272278 10.0239V10.0239ZM7.99951 8.70281C5.21205 8.70281 4.79554 7.21462 4.79554 6.32677C4.79554 5.30745 5.61976 4.281 7.19851 4.01805V3.16822H8.8005V4.04657C10.1894 4.37129 10.7229 5.51416 10.7229 6.32677H9.92189L9.1209 6.34103C9.10968 6.04006 8.94868 5.53476 7.99951 5.53476C6.95902 5.53476 6.39752 5.94264 6.39752 6.32677C6.39752 6.62298 6.39752 7.11878 7.99951 7.11878C10.787 7.11878 11.2035 8.60697 11.2035 9.49482C11.2035 10.5141 10.3793 11.5406 8.8005 11.8035V12.6629H7.19851V11.8075C5.32499 11.5168 4.79554 10.2211 4.79554 9.49482H6.39752C6.40633 9.60808 6.52488 10.2868 7.99951 10.2868C9.10488 10.2868 9.60149 9.8235 9.60149 9.49482C9.60149 9.23741 9.60149 8.70281 7.99951 8.70281V8.70281Z" fill="#5B43BD"/>
</svg>
