<svg width="3" height="13" viewBox="0 0 3 13" fill="none" xmlns="http://www.w3.org/2000/svg">
<path d="M3 11.3716C3 11.765 2.84196 12.1423 2.56066 12.4204C2.27936 12.6986 1.89782 12.8549 1.5 12.8549C1.10218 12.8549 0.720644 12.6986 0.43934 12.4204C0.158035 12.1423 0 11.765 0 11.3716C0 10.9782 0.158035 10.601 0.43934 10.3228C0.720644 10.0446 1.10218 9.88835 1.5 9.88835C1.89782 9.88835 2.27936 10.0446 2.56066 10.3228C2.84196 10.601 3 10.9782 3 11.3716ZM3 6.42743C3 6.82081 2.84196 7.19808 2.56066 7.47625C2.27936 7.75441 1.89782 7.91068 1.5 7.91068C1.10218 7.91068 0.720644 7.75441 0.43934 7.47625C0.158035 7.19808 0 6.82081 0 6.42743C0 6.03405 0.158035 5.65677 0.43934 5.37861C0.720644 5.10045 1.10218 4.94418 1.5 4.94418C1.89782 4.94418 2.27936 5.10045 2.56066 5.37861C2.84196 5.65677 3 6.03405 3 6.42743ZM3 1.48325C3 1.87664 2.84196 2.25391 2.56066 2.53207C2.27936 2.81024 1.89782 2.96651 1.5 2.96651C1.10218 2.96651 0.720644 2.81024 0.43934 2.53207C0.158035 2.25391 0 1.87664 0 1.48325C0 1.08987 0.158035 0.712599 0.43934 0.434435C0.720644 0.156271 1.10218 0 1.5 0C1.89782 0 2.27936 0.156271 2.56066 0.434435C2.84196 0.712599 3 1.08987 3 1.48325Z" fill="#DC143C"/>
</svg>
