<svg width="24" height="24" viewBox="0 0 24 24" fill="none" xmlns="http://www.w3.org/2000/svg">
<path d="M13.067 8.48383C10.6763 8.39585 8.2817 8.44644 5.89533 8.63561L5.7066 8.65057C5.26765 8.68537 4.90256 9.00205 4.80609 9.43168C4.42762 11.1172 4.42776 12.8662 4.80621 14.5516C4.90239 14.98 5.2657 15.2964 5.7035 15.3326L5.87777 15.347C8.26997 15.5445 10.6711 15.5975 13.0681 15.5059C13.4709 15.4905 13.7895 15.1595 13.7895 14.7564V9.23332C13.7895 8.82984 13.4703 8.49866 13.067 8.48383Z" fill="black"/>
<path fill-rule="evenodd" clip-rule="evenodd" d="M22.25 14V10C22.25 9.0335 21.4665 8.25 20.5 8.25H19.85V8.18967C19.85 6.91863 18.8721 5.86153 17.6049 5.76273L16.3364 5.66382C12.7842 5.38684 9.21579 5.38684 5.66357 5.66382L4.31597 5.76889C3.10632 5.86321 2.11643 6.76935 1.91582 7.96597C1.46808 10.6367 1.46808 13.3633 1.91582 16.034C2.11643 17.2306 3.10632 18.1368 4.31596 18.2311L5.66357 18.3362C9.2158 18.6132 12.7842 18.6132 16.3364 18.3362L17.6049 18.2373C18.8721 18.1385 19.85 17.0814 19.85 15.8103V15.75H20.5C21.4665 15.75 22.25 14.9665 22.25 14ZM20.75 10V14C20.75 14.1381 20.6381 14.25 20.5 14.25L19.1 14.25C18.6858 14.25 18.35 14.5858 18.35 15V15.8103C18.35 16.2982 17.9747 16.7039 17.4883 16.7418L16.2198 16.8407C12.7452 17.1116 9.25478 17.1116 5.78017 16.8407L4.43257 16.7356C3.90973 16.6949 3.48188 16.3032 3.39518 15.786C2.97496 13.2795 2.97496 10.7205 3.39518 8.21398C3.48188 7.69677 3.90973 7.30512 4.43257 7.26435L5.78017 7.15928C9.25478 6.88835 12.7452 6.88835 16.2198 7.15928L17.4883 7.25819C17.9747 7.29611 18.35 7.70183 18.35 8.18967V9C18.35 9.41421 18.6858 9.75 19.1 9.75H20.5C20.6381 9.75 20.75 9.86193 20.75 10Z" fill="black"/>
</svg>
