<svg width="24" height="24" viewBox="0 0 24 24" fill="none" xmlns="http://www.w3.org/2000/svg">
<path fill-rule="evenodd" clip-rule="evenodd" d="M5.62548 9.63128L5.30625 6.75819C5.26581 6.39421 5.26581 6.02687 5.30625 5.66289L5.32901 5.45799C5.5705 3.28461 7.2791 1.56495 9.45089 1.30944C9.81572 1.26652 10.1843 1.26652 10.5491 1.30944C12.7209 1.56495 14.4295 3.28461 14.671 5.458L14.6938 5.66289C14.7342 6.02687 14.7342 6.39421 14.6938 6.75819L14.4128 9.28685C14.393 9.46555 14.256 9.60786 14.0799 9.64414C13.0843 9.84929 12.166 10.2659 11.3738 10.8448C11.2996 10.899 11.2099 10.9281 11.1181 10.9256C9.55159 10.8828 7.98324 10.93 6.42079 11.0672L5.28634 11.1668C4.76161 11.2129 4.33692 11.6128 4.25936 12.1338C3.92714 14.3656 3.92714 16.6344 4.25936 18.8662C4.33692 19.3872 4.76161 19.7871 5.28634 19.8332L6.42079 19.9328C7.36685 20.0159 8.31507 20.066 9.26374 20.083C9.40268 20.0855 9.53004 20.1596 9.60511 20.2765C9.82385 20.6173 10.0713 20.9378 10.3441 21.2347C10.4654 21.3667 10.3771 21.5884 10.1978 21.5892C8.89389 21.5953 7.58976 21.5412 6.28957 21.4271L5.15513 21.3274C3.93937 21.2207 2.9554 20.2942 2.77571 19.0871C2.42169 16.7088 2.42169 14.2912 2.77571 11.9129C2.9554 10.7058 3.93937 9.77934 5.15513 9.67258L5.62548 9.63128ZM9.62615 2.79917C9.87454 2.76995 10.1255 2.76995 10.3739 2.79917C11.8525 2.97312 13.0158 4.14393 13.1802 5.62364L13.203 5.82854C13.2312 6.08242 13.2312 6.33865 13.203 6.59254L12.879 9.50817C10.9619 9.37775 9.03814 9.37775 7.12103 9.50817L6.79707 6.59254C6.76886 6.33865 6.76886 6.08242 6.79707 5.82854L6.81984 5.62364C6.98425 4.14393 8.14753 2.97312 9.62615 2.79917Z" fill="black"/>
<path d="M16.25 15C16.25 14.5858 15.9142 14.25 15.5 14.25C15.0858 14.25 14.75 14.5858 14.75 15V16.7727C14.75 17.0127 14.8648 17.2382 15.0589 17.3793L16.0589 18.1066C16.3939 18.3502 16.8629 18.2761 17.1066 17.9411C17.3502 17.6062 17.2761 17.1371 16.9411 16.8935L16.25 16.3908V15Z" fill="black"/>
<path fill-rule="evenodd" clip-rule="evenodd" d="M15.5 22C18.5376 22 21 19.5376 21 16.5C21 13.4624 18.5376 11 15.5 11C12.4624 11 10 13.4624 10 16.5C10 19.5376 12.4624 22 15.5 22ZM15.5 20.5C17.7092 20.5 19.5 18.7092 19.5 16.5C19.5 14.2909 17.7092 12.5 15.5 12.5C13.2909 12.5 11.5 14.2909 11.5 16.5C11.5 18.7092 13.2909 20.5 15.5 20.5Z" fill="black"/>
</svg>
