<svg width="24" height="24" viewBox="0 0 24 24" fill="none" xmlns="http://www.w3.org/2000/svg">
<path fill-rule="evenodd" clip-rule="evenodd" d="M19.8065 5.37075C20.4739 5.85237 20.9451 6.59097 21.0742 7.44948C21.1194 7.75033 21.1601 8.05169 21.1963 8.35345C21.4765 10.9564 21.464 13.9582 21.0742 16.5505C20.8585 17.9849 19.6878 19.0845 18.2427 19.2102L16.7325 19.3414C13.5834 19.6152 10.4166 19.6152 7.26753 19.3414L5.7573 19.2102C4.31223 19.0845 3.14156 17.9849 2.92586 16.5505C2.53604 13.9582 2.52355 10.9562 2.80369 8.35329C2.83991 8.05158 2.88063 7.75028 2.92586 7.44948C3.05478 6.59216 3.52486 5.85441 4.19077 5.37275L4.19 5.36602L4.23726 5.33977C4.40977 5.21969 4.59485 5.11656 4.79008 5.03264L9.20602 2.57934C10.9427 1.61455 13.0543 1.61454 14.7909 2.57934L19.1967 5.02698C19.4013 5.1138 19.5948 5.2217 19.7746 5.34805L19.807 5.36606L19.8065 5.37075ZM18.9655 6.61451L14.0625 3.89057C12.7789 3.17747 11.2181 3.17747 9.93449 3.89058L5.04282 6.60817C4.70934 6.85978 4.47475 7.23654 4.40918 7.67254C4.39749 7.75031 4.38611 7.82811 4.37505 7.90595L9.93599 10.9954C11.2196 11.7085 12.7804 11.7085 14.064 10.9954L19.625 7.90592C19.6139 7.82809 19.6025 7.7503 19.5908 7.67254C19.5258 7.24019 19.2946 6.8661 18.9655 6.61451ZM19.7055 15.4805C19.9439 13.5016 19.9782 11.5042 19.8085 9.5199L14.7924 12.3066C13.0558 13.2714 10.9442 13.2714 9.20752 12.3066L4.1915 9.51993C4.02178 11.5042 4.05612 13.5016 4.29452 15.4805C4.32858 15.7633 4.3668 16.0456 4.40918 16.3275C4.43318 16.487 4.47982 16.6387 4.54566 16.7791C4.78876 17.2978 5.29364 17.6642 5.8872 17.7158L7.39743 17.8471C10.46 18.1133 13.54 18.1133 16.6026 17.8471L18.1128 17.7158C18.5843 17.6748 18.9998 17.4352 19.2726 17.0785C19.4363 16.8645 19.5486 16.6082 19.5908 16.3274C19.6332 16.0456 19.6714 15.7632 19.7055 15.4805Z" fill="black"/>
</svg>
