<svg width="24" height="24" viewBox="0 0 24 24" fill="none" xmlns="http://www.w3.org/2000/svg">
<path fill-rule="evenodd" clip-rule="evenodd" d="M5.84027 9.84046C7.62759 13.7262 10.8081 16.8154 14.7618 18.4893L14.7743 18.4946L15.5381 18.8345C16.5108 19.2672 17.654 18.9599 18.2776 18.0982L19.552 16.3372C19.6298 16.2297 19.6097 16.0801 19.5063 15.9968L17.2816 14.2049C17.171 14.1158 17.0083 14.1365 16.9237 14.2505L16.0579 15.417C15.8476 15.7003 15.4678 15.7988 15.1461 15.6534C12.1897 14.3176 9.81396 11.9457 8.47603 8.99396C8.33041 8.67271 8.42901 8.29356 8.71276 8.08362L9.88114 7.21914C9.99531 7.13466 10.0161 6.9723 9.92686 6.86188L8.13182 4.64038C8.04839 4.53713 7.89865 4.51707 7.79092 4.59472L6.01762 5.87284C5.14883 6.49903 4.84288 7.65004 5.28634 8.62394L5.83968 9.83916C5.83988 9.83959 5.84008 9.84002 5.84027 9.84046ZM14.1699 19.8654C9.87391 18.0447 6.41854 14.6871 4.4765 10.4641L4.47533 10.4615L3.92083 9.24374C3.18173 7.62058 3.69165 5.70223 5.13964 4.65858L6.91293 3.38046C7.66705 2.83692 8.71528 2.9773 9.29927 3.70004L11.0943 5.92154C11.7189 6.69448 11.5734 7.83106 10.7742 8.42236L10.1047 8.91772C11.2357 11.1086 13.028 12.8981 15.2224 14.0273L15.7186 13.3588C16.3108 12.5609 17.4492 12.4157 18.2234 13.0393L20.4481 14.8312C21.1722 15.4144 21.3127 16.4614 20.7678 17.2143L19.4934 18.9753C18.4541 20.4114 16.5487 20.9236 14.9277 20.2025L14.1699 19.8654Z" fill="#DC143C"/>
</svg>
