<svg width="64" height="40" viewBox="0 0 64 40" fill="none" xmlns="http://www.w3.org/2000/svg">
<g clip-path="url(#clip0_92_1431)">
<path d="M54.338 30.6177C53.7095 31.0852 52.9258 31.2888 52.1516 31.1857C51.3774 31.0826 50.6729 30.6809 50.186 30.0648C50.3105 30.6103 50.5685 31.1157 50.9364 31.5346C51.3044 31.9536 51.7706 32.2728 52.2924 32.4631C52.8142 32.6533 53.3749 32.7086 53.9234 32.6238C54.4718 32.5389 54.9904 32.3168 55.4318 31.9776C55.8731 31.6383 56.2231 31.1929 56.4498 30.682C56.6765 30.171 56.7726 29.6109 56.7294 29.0529C56.6861 28.4948 56.5049 27.9566 56.2023 27.4874C55.8996 27.0182 55.4853 26.6331 54.997 26.3672C55.387 26.8914 55.6004 27.5278 55.606 28.1832C55.6178 28.3401 55.6178 28.4975 55.606 28.6544C55.4576 29.4534 55.0012 30.1605 54.337 30.6207L54.338 30.6177Z" fill="#DC143C"/>
<path d="M19.826 30.7824C19.4689 32.4747 18.5097 33.9763 17.1296 35.0035C15.7495 36.0306 14.0443 36.5121 12.3363 36.3568C10.6282 36.2015 9.03577 35.4203 7.85994 34.1607C6.68411 32.9012 6.00639 31.2507 5.95492 29.5213C5.90344 27.7918 6.48176 26.1033 7.58056 24.7749C8.67936 23.4464 10.2225 22.5702 11.9182 22.3118C13.6139 22.0534 15.3447 22.4307 16.7834 23.3725C18.2221 24.3142 19.2689 25.7551 19.726 27.4227C19.8735 27.1522 20.058 26.904 20.274 26.6852L22.416 24.504C21.3025 22.2866 19.4567 20.5311 17.1971 19.5402C14.9376 18.5494 12.4061 18.3855 10.0396 19.0767C7.673 19.7679 5.61986 21.271 4.23449 23.3265C2.84912 25.382 2.21844 27.8609 2.45129 30.3355C2.68414 32.81 3.76591 35.1249 5.50991 36.8807C7.2539 38.6365 9.5507 39.7229 12.0039 39.9525C14.4571 40.1821 16.9128 39.5405 18.9472 38.1384C20.9815 36.7363 22.4669 34.6616 23.147 32.2725H22.629C22.0749 32.2833 21.5272 32.1517 21.0374 31.8901C20.5476 31.6286 20.1318 31.2456 19.829 30.7773L19.826 30.7824Z" fill="#DC143C"/>
<path d="M16.315 29.3051C16.315 29.9674 16.1203 30.6148 15.7556 31.1655C15.3909 31.7161 14.8726 32.1453 14.2661 32.3988C13.6597 32.6522 12.9923 32.7185 12.3485 32.5893C11.7047 32.4601 11.1133 32.1412 10.6491 31.6729C10.185 31.2046 9.86884 30.6079 9.74078 29.9584C9.61272 29.3088 9.67843 28.6355 9.92964 28.0237C10.1808 27.4118 10.6063 26.8888 11.1521 26.5209C11.6979 26.1529 12.3396 25.9565 12.996 25.9565C13.8763 25.9565 14.7205 26.3094 15.3429 26.9373C15.9653 27.5653 16.315 28.417 16.315 29.3051Z" fill="#DC143C"/>
<path d="M54.195 18.6665C53.3511 19.0748 52.5629 19.5913 51.85 20.2031L51.038 20.8992L52.114 22.3742C53.6759 22.0741 55.2925 22.3182 56.6988 23.0666C58.1051 23.815 59.2177 25.0232 59.8541 26.4932C60.4905 27.9632 60.613 29.6077 60.2015 31.1572C59.7899 32.7066 58.8689 34.0691 57.5892 35.0211C56.3096 35.9731 54.7473 36.4583 53.1585 36.397C51.5697 36.3357 50.0486 35.7316 48.8448 34.6838C47.6409 33.6359 46.8256 32.2065 46.5326 30.6299C46.2396 29.0533 46.4862 27.423 47.232 26.0063L46.402 24.8723L42.951 27.8324C42.8831 28.3245 42.8496 28.8207 42.851 29.3175C42.8524 31.3946 43.4546 33.4262 44.5837 35.163C45.7129 36.8998 47.3199 38.2665 49.2077 39.0952C51.0955 39.924 53.182 40.1789 55.2113 39.8287C57.2406 39.4785 59.1245 38.5384 60.6319 37.1237C62.1393 35.709 63.2048 33.8812 63.6976 31.8645C64.1903 29.8477 64.089 27.7297 63.406 25.7702C62.723 23.8108 61.4881 22.095 59.8526 20.8333C58.2171 19.5716 56.2523 18.8189 54.199 18.6675L54.195 18.6665Z" fill="#DC143C"/>
<path d="M61.219 11.6406L54.632 1.01078C54.498 0.782164 54.3208 0.582405 54.1103 0.42291C53.8998 0.263415 53.6603 0.147305 53.4053 0.0812103C53.1504 0.0151153 52.885 0.000329955 52.6244 0.0376973C52.3638 0.0750647 52.1131 0.163857 51.8865 0.298998C51.6599 0.434139 51.4619 0.612985 51.3038 0.825326C51.1457 1.03767 51.0306 1.27934 50.9651 1.53655C50.8996 1.79376 50.8849 2.06148 50.922 2.32441C50.959 2.58734 51.047 2.84033 51.181 3.06894L53.658 7.16509C53.9788 7.68122 54.1216 8.2899 54.064 8.89637C54.0197 9.42249 53.7805 9.91244 53.394 10.2685L50.653 5.64972C50.6237 5.60299 50.5833 5.56445 50.5354 5.53765C50.4875 5.51085 50.4337 5.49665 50.379 5.49636H46.907C46.6378 5.49636 46.3796 5.60425 46.1893 5.7963C45.9989 5.98834 45.892 6.24881 45.892 6.5204C45.892 6.79199 45.9989 7.05246 46.1893 7.2445C46.3796 7.43655 46.6378 7.54444 46.907 7.54444H49.262C49.3167 7.54472 49.3705 7.55892 49.4184 7.58572C49.4663 7.61253 49.5067 7.65107 49.536 7.69779L51.475 10.9646L48.146 10.4834L44.563 14.7742C44.4715 14.8856 44.3471 14.9644 44.208 14.9992L27.246 19.0459C27.088 19.086 26.9436 19.1679 26.8275 19.2832C26.7115 19.3985 26.6281 19.543 26.586 19.7017L26.186 21.1051C26.1504 21.2275 26.0807 21.3371 25.9852 21.4207C25.8897 21.5043 25.7724 21.5585 25.6472 21.5768C25.5221 21.595 25.3943 21.5767 25.2792 21.5238C25.1641 21.471 25.0665 21.3859 24.998 21.2786C24.5775 20.6301 24.1056 20.017 23.587 19.4455L25.303 17.1411C25.5508 17.2367 25.7782 17.3792 25.973 17.5608C26.0805 17.661 26.2108 17.7329 26.3524 17.7704C26.494 17.8079 26.6425 17.8097 26.785 17.7757L43.645 13.7714L46.924 9.84877C46.7029 9.66213 46.5051 9.44903 46.335 9.21418C44.427 6.57186 41.422 5.70117 38.357 5.43482C35.576 5.18865 32.267 5.08675 30.328 7.42136C28.887 9.1829 28.379 12.3065 25.415 11.5175L16.655 9.09008L15.701 7.84106C15.0422 6.98641 14.1811 6.31245 13.1969 5.88107C12.2126 5.4497 11.1367 5.27474 10.068 5.37227L5.84598 5.7617C5.66686 5.77985 5.4969 5.85039 5.35697 5.96465C5.21705 6.07892 5.11326 6.23192 5.05834 6.40489C5.00343 6.57785 4.99978 6.76323 5.04786 6.93825C5.09594 7.11327 5.19364 7.27031 5.32897 7.39007L7.93797 9.74587L4.21298 10.2271L0.233979 15.3473C0.0615759 15.5786 -0.0211677 15.8655 0.00129759 16.154C0.0237629 16.4425 0.149885 16.7128 0.355973 16.9141C0.474013 17.0193 0.612082 17.099 0.761719 17.1484C0.911357 17.1978 1.06941 17.2159 1.22622 17.2015C1.38303 17.1872 1.53528 17.1407 1.67365 17.0649C1.81203 16.9891 1.93362 16.8856 2.03098 16.7608L5.45197 12.3155L10.314 11.691C11.3806 12.5132 12.5837 13.1373 13.867 13.5343L22.282 16.1453L21.358 17.3843C19.5988 16.1169 17.5737 15.2759 15.44 14.9266C15.28 14.9017 15.1168 14.9088 14.9596 14.9475C14.8023 14.9863 14.6542 15.0559 14.5237 15.1524C14.3931 15.2489 14.2827 15.3704 14.1986 15.5099C14.1146 15.6495 14.0587 15.8044 14.034 15.9658C14.0093 16.1271 14.0163 16.2918 14.0547 16.4505C14.0932 16.6091 14.1621 16.7585 14.2578 16.8902C14.3534 17.022 14.4738 17.1334 14.6122 17.2181C14.7505 17.3029 14.904 17.3594 15.064 17.3843C17.0634 17.7184 18.9425 18.5709 20.5172 19.858C22.0919 21.1452 23.3082 22.823 24.047 24.7271L23.032 25.7511L21.276 27.5429C21.0031 27.8199 20.8177 28.1722 20.7431 28.5555C20.6685 28.9387 20.7082 29.3356 20.857 29.6961C21.0058 30.0566 21.2571 30.3645 21.5793 30.5811C21.9014 30.7976 22.2799 30.913 22.667 30.9127H34.756C36.3738 30.9128 37.9388 30.332 39.171 29.2742L46.652 22.8435L51.199 29.1995C51.338 29.3908 51.5147 29.551 51.718 29.67C51.9213 29.789 52.1468 29.8644 52.3804 29.8913C52.6139 29.9182 52.8505 29.8961 53.0752 29.8264C53.2998 29.7566 53.5078 29.6408 53.686 29.4861C54.0105 29.1775 54.2099 28.7583 54.2455 28.3098C54.2812 27.8614 54.1506 27.4155 53.879 27.0587L49.261 20.6783L51.433 18.8351C53.5353 17.2108 56.0867 16.2873 58.733 16.1928C59.2571 16.1861 59.7701 16.0393 60.2196 15.7674C60.6692 15.4955 61.0392 15.1082 61.292 14.6449C61.5448 14.1817 61.6713 13.6591 61.6587 13.1304C61.646 12.6018 61.4947 12.0859 61.22 11.6355L61.219 11.6406Z" fill="#DC143C"/>
</g>
<defs>
<clipPath id="clip0_92_1431">
<rect width="64" height="40" fill="white"/>
</clipPath>
</defs>
</svg>
