<svg width="34" height="34" viewBox="0 0 34 34" fill="none" xmlns="http://www.w3.org/2000/svg">
<path d="M16.9999 5.3125C14.0659 5.3125 11.6874 7.69099 11.6874 10.625C11.6874 13.559 14.0659 15.9375 16.9999 15.9375C19.9339 15.9375 22.3124 13.559 22.3124 10.625C22.3124 7.69099 19.9339 5.3125 16.9999 5.3125Z" fill="#DC143C"/>
<path d="M11.3333 18.7708C8.39924 18.7708 6.02075 21.1493 6.02075 24.0833V25.7667C6.02075 26.8338 6.79409 27.7436 7.84722 27.9156C13.9089 28.9052 20.0909 28.9052 26.1526 27.9156C27.2058 27.7436 27.9791 26.8338 27.9791 25.7667V24.0833C27.9791 21.1493 25.6006 18.7708 22.6666 18.7708H22.1837C21.9223 18.7708 21.6626 18.8122 21.4142 18.8933L20.188 19.2937C18.1164 19.9701 15.8834 19.9701 13.8118 19.2937L12.5857 18.8933C12.3372 18.8122 12.0775 18.7708 11.8162 18.7708H11.3333Z" fill="#DC143C"/>
</svg>
