<svg width="254" height="280" viewBox="0 0 254 280" fill="none" xmlns="http://www.w3.org/2000/svg">
<g clip-path="url(#clip0_5_3570)">
<path d="M126.5 143.75V145.062C126.5 145.546 126.109 145.938 125.625 145.938H124.714C124.507 147.179 123.427 148.125 122.125 148.125C120.823 148.125 119.743 147.179 119.536 145.938H115.964C115.757 147.179 114.677 148.125 113.375 148.125C112.073 148.125 110.994 147.179 110.786 145.938H109.875C109.392 145.938 109 145.546 109 145.062V142C109 141.259 109.46 140.627 110.109 140.37L111.248 137.525C111.646 136.529 112.612 135.875 113.684 135.875H118.658C119.456 135.875 120.186 136.238 120.709 136.86L123.443 140.277C125.166 140.471 126.5 141.967 126.5 143.725V143.75ZM113.684 137.625C113.326 137.625 113.006 137.819 112.872 138.175L112.043 140.25H115.125V137.625H113.684ZM116.438 140.25H121.179L119.341 137.953C119.177 137.745 118.901 137.625 118.658 137.625H116.438V140.25ZM123.364 145.938C123.41 145.776 123.438 145.653 123.438 145.5C123.438 144.775 122.85 144.188 122.125 144.188C121.4 144.188 120.812 144.775 120.812 145.5C120.812 145.653 120.815 145.776 120.886 145.938C121.067 146.446 121.554 146.812 122.125 146.812C122.696 146.812 123.183 146.446 123.364 145.938ZM114.614 145.938C114.66 145.776 114.688 145.653 114.688 145.5C114.688 144.775 114.1 144.188 113.375 144.188C112.65 144.188 112.062 144.775 112.062 145.5C112.062 145.653 112.065 145.776 112.136 145.938C112.317 146.446 112.804 146.812 113.375 146.812C113.946 146.812 114.433 146.446 114.614 145.938Z" fill="#DC143C"/>
</g>
<g clip-path="url(#clip1_5_3570)">
<path d="M96.5 14.75V16.0625C96.5 16.5465 96.109 16.9375 95.625 16.9375H94.7145C94.5066 18.1789 93.4266 19.125 92.125 19.125C90.8234 19.125 89.7434 18.1789 89.5355 16.9375H85.9645C85.7566 18.1789 84.6766 19.125 83.375 19.125C82.0734 19.125 80.9945 18.1789 80.7864 16.9375H79.875C79.3918 16.9375 79 16.5465 79 16.0625V13C79 12.259 79.4596 11.6273 80.1091 11.3703L81.2477 8.5252C81.6463 7.52852 82.6121 6.875 83.684 6.875H88.6578C89.4563 6.875 90.1863 7.23758 90.7086 7.8602L93.443 11.2773C95.1656 11.4715 96.5 12.9672 96.5 14.7254V14.75ZM83.684 8.625C83.3258 8.625 83.0059 8.81914 82.8719 9.17461L82.0434 11.25H85.125V8.625H83.684ZM86.4375 11.25H91.1789L89.3414 8.95312C89.1773 8.74531 88.9012 8.625 88.6578 8.625H86.4375V11.25ZM93.3637 16.9375C93.4102 16.7762 93.4375 16.6531 93.4375 16.5C93.4375 15.7754 92.8496 15.1875 92.125 15.1875C91.4004 15.1875 90.8125 15.7754 90.8125 16.5C90.8125 16.6531 90.8152 16.7762 90.8863 16.9375C91.0668 17.4461 91.5535 17.8125 92.125 17.8125C92.6965 17.8125 93.1832 17.4461 93.3637 16.9375ZM84.6137 16.9375C84.6602 16.7762 84.6875 16.6531 84.6875 16.5C84.6875 15.7754 84.0996 15.1875 83.375 15.1875C82.6504 15.1875 82.0625 15.7754 82.0625 16.5C82.0625 16.6531 82.0652 16.7762 82.1363 16.9375C82.3168 17.4461 82.8035 17.8125 83.375 17.8125C83.9465 17.8125 84.4332 17.4461 84.6137 16.9375Z" fill="#DC143C"/>
</g>
<g clip-path="url(#clip2_5_3570)">
<path d="M219.5 240.75V242.062C219.5 242.546 219.891 242.938 220.375 242.938H221.286C221.493 244.179 222.573 245.125 223.875 245.125C225.177 245.125 226.257 244.179 226.464 242.938H230.036C230.243 244.179 231.323 245.125 232.625 245.125C233.927 245.125 235.006 244.179 235.214 242.938H236.125C236.608 242.938 237 242.546 237 242.062V239C237 238.259 236.54 237.627 235.891 237.37L234.752 234.525C234.354 233.529 233.388 232.875 232.316 232.875H227.342C226.544 232.875 225.814 233.238 225.291 233.86L222.557 237.277C220.834 237.471 219.5 238.967 219.5 240.725V240.75ZM232.316 234.625C232.674 234.625 232.994 234.819 233.128 235.175L233.957 237.25H230.875V234.625H232.316ZM229.562 237.25H224.821L226.659 234.953C226.823 234.745 227.099 234.625 227.342 234.625H229.562V237.25ZM222.636 242.938C222.59 242.776 222.562 242.653 222.562 242.5C222.562 241.775 223.15 241.188 223.875 241.188C224.6 241.188 225.188 241.775 225.188 242.5C225.188 242.653 225.185 242.776 225.114 242.938C224.933 243.446 224.446 243.812 223.875 243.812C223.304 243.812 222.817 243.446 222.636 242.938ZM231.386 242.938C231.34 242.776 231.312 242.653 231.312 242.5C231.312 241.775 231.9 241.188 232.625 241.188C233.35 241.188 233.938 241.775 233.938 242.5C233.938 242.653 233.935 242.776 233.864 242.938C233.683 243.446 233.196 243.812 232.625 243.812C232.054 243.812 231.567 243.446 231.386 242.938Z" fill="#DC143C"/>
</g>
<path d="M134.667 272.837V272H133.333V270.667H137.577L139.467 269.333H141.794L141.067 267.333H139.333V266H142L142.728 268H145.333V270H143.456L144.427 272.668C145.163 272.691 145.865 272.985 146.399 273.493C146.933 274.001 147.261 274.688 147.321 275.422C147.381 276.156 147.169 276.887 146.725 277.475C146.28 278.063 145.635 278.467 144.912 278.61C144.19 278.752 143.439 278.624 142.805 278.249C142.171 277.874 141.696 277.279 141.473 276.577C141.249 275.875 141.292 275.115 141.592 274.442C141.893 273.769 142.431 273.231 143.103 272.929L142.279 270.667H141.648L140.593 274.58L140.592 274.579L140.593 274.583L138.643 275.293C138.714 275.854 138.624 276.424 138.384 276.937C138.144 277.449 137.764 277.884 137.288 278.19C136.812 278.496 136.259 278.661 135.694 278.666C135.128 278.671 134.572 278.516 134.09 278.218C133.609 277.921 133.221 277.494 132.972 276.986C132.723 276.477 132.623 275.909 132.684 275.346C132.744 274.784 132.962 274.25 133.313 273.806C133.664 273.362 134.133 273.026 134.667 272.837ZM136 272.685C136.442 272.734 136.868 272.881 137.246 273.116C137.625 273.35 137.946 273.666 138.187 274.04L139.492 273.565L140.269 270.667H139.904L138 272H136V272.685ZM135.667 277.333C136.109 277.333 136.532 277.158 136.845 276.845C137.158 276.533 137.333 276.109 137.333 275.667C137.333 275.225 137.158 274.801 136.845 274.488C136.532 274.176 136.109 274 135.667 274C135.225 274 134.801 274.176 134.488 274.488C134.175 274.801 134 275.225 134 275.667C134 276.109 134.175 276.533 134.488 276.845C134.801 277.158 135.225 277.333 135.667 277.333ZM144.333 277.333C144.775 277.333 145.199 277.158 145.512 276.845C145.824 276.533 146 276.109 146 275.667C146 275.225 145.824 274.801 145.512 274.488C145.199 274.176 144.775 274 144.333 274C143.891 274 143.467 274.176 143.155 274.488C142.842 274.801 142.667 275.225 142.667 275.667C142.667 276.109 142.842 276.533 143.155 276.845C143.467 277.158 143.891 277.333 144.333 277.333Z" fill="#DC143C"/>
<path d="M240.667 195.837V195H239.333V193.667H243.577L245.467 192.333H247.794L247.067 190.333H245.333V189H248L248.728 191H251.333V193H249.456L250.427 195.668C251.163 195.691 251.865 195.985 252.399 196.493C252.933 197.001 253.261 197.688 253.321 198.422C253.381 199.156 253.169 199.887 252.725 200.475C252.28 201.063 251.635 201.467 250.912 201.61C250.19 201.752 249.439 201.624 248.805 201.249C248.171 200.874 247.696 200.279 247.473 199.577C247.249 198.875 247.292 198.115 247.592 197.442C247.893 196.769 248.431 196.231 249.103 195.929L248.279 193.667H247.648L246.593 197.58L246.592 197.579L246.593 197.583L244.643 198.293C244.714 198.854 244.624 199.424 244.384 199.937C244.144 200.449 243.764 200.884 243.288 201.19C242.812 201.496 242.259 201.661 241.694 201.666C241.128 201.671 240.572 201.516 240.09 201.218C239.609 200.921 239.221 200.494 238.972 199.986C238.723 199.477 238.623 198.909 238.684 198.346C238.744 197.784 238.962 197.25 239.313 196.806C239.664 196.362 240.133 196.026 240.667 195.837ZM242 195.685C242.442 195.734 242.868 195.881 243.246 196.116C243.625 196.35 243.946 196.666 244.187 197.04L245.492 196.565L246.269 193.667H245.904L244 195H242V195.685ZM241.667 200.333C242.109 200.333 242.532 200.158 242.845 199.845C243.158 199.533 243.333 199.109 243.333 198.667C243.333 198.225 243.158 197.801 242.845 197.488C242.532 197.176 242.109 197 241.667 197C241.225 197 240.801 197.176 240.488 197.488C240.175 197.801 240 198.225 240 198.667C240 199.109 240.175 199.533 240.488 199.845C240.801 200.158 241.225 200.333 241.667 200.333ZM250.333 200.333C250.775 200.333 251.199 200.158 251.512 199.845C251.824 199.533 252 199.109 252 198.667C252 198.225 251.824 197.801 251.512 197.488C251.199 197.176 250.775 197 250.333 197C249.891 197 249.467 197.176 249.155 197.488C248.842 197.801 248.667 198.225 248.667 198.667C248.667 199.109 248.842 199.533 249.155 199.845C249.467 200.158 249.891 200.333 250.333 200.333Z" fill="#DC143C"/>
<path d="M2.66655 160.837V160H1.33321V158.667H5.57655L7.46655 157.333H9.79388L9.06655 155.333H7.33321V154H9.99988L10.7279 156H13.3332V158H11.4559L12.4265 160.668C13.1631 160.691 13.8652 160.985 14.3991 161.493C14.9329 162.001 15.2612 162.688 15.3212 163.422C15.3813 164.156 15.169 164.887 14.7247 165.475C14.2804 166.063 13.6354 166.467 12.9124 166.61C12.1895 166.752 11.4393 166.624 10.805 166.249C10.1706 165.874 9.69635 165.279 9.47271 164.577C9.24908 163.875 9.29168 163.115 9.5924 162.442C9.89311 161.769 10.4309 161.231 11.1032 160.929L10.2792 158.667H9.64788L8.59321 162.58L8.59188 162.579L8.59321 162.583L6.64321 163.293C6.71359 163.854 6.62373 164.424 6.38399 164.937C6.14426 165.449 5.76443 165.884 5.28837 166.19C4.8123 166.496 4.25942 166.661 3.69356 166.666C3.12769 166.671 2.57192 166.516 2.09042 166.218C1.60892 165.921 1.22132 165.494 0.97238 164.986C0.72344 164.477 0.623311 163.909 0.683554 163.346C0.743797 162.784 0.961954 162.25 1.31284 161.806C1.66372 161.362 2.13302 161.026 2.66655 160.837ZM3.99988 160.685C4.44218 160.734 4.86792 160.881 5.24624 161.116C5.62456 161.35 5.94599 161.666 6.18721 162.04L7.49188 161.565L8.26855 158.667H7.90388L5.99988 160H3.99988V160.685ZM3.66655 165.333C4.10857 165.333 4.5325 165.158 4.84506 164.845C5.15762 164.533 5.33321 164.109 5.33321 163.667C5.33321 163.225 5.15762 162.801 4.84506 162.488C4.5325 162.176 4.10857 162 3.66655 162C3.22452 162 2.8006 162.176 2.48804 162.488C2.17548 162.801 1.99988 163.225 1.99988 163.667C1.99988 164.109 2.17548 164.533 2.48804 164.845C2.8006 165.158 3.22452 165.333 3.66655 165.333ZM12.3332 165.333C12.7752 165.333 13.1992 165.158 13.5117 164.845C13.8243 164.533 13.9999 164.109 13.9999 163.667C13.9999 163.225 13.8243 162.801 13.5117 162.488C13.1992 162.176 12.7752 162 12.3332 162C11.8912 162 11.4673 162.176 11.1547 162.488C10.8421 162.801 10.6665 163.225 10.6665 163.667C10.6665 164.109 10.8421 164.533 11.1547 164.845C11.4673 165.158 11.8912 165.333 12.3332 165.333Z" fill="#DC143C"/>
<path d="M243.333 8.83733V8H244.667V6.66667H240.423L238.533 5.33333H236.206L236.933 3.33333H238.667V2H236L235.272 4H232.667V6H234.544L233.573 8.668C232.837 8.69141 232.135 8.98508 231.601 9.49299C231.067 10.0009 230.739 10.6875 230.679 11.422C230.619 12.1564 230.831 12.8872 231.275 13.4751C231.72 14.063 232.365 14.4669 233.088 14.6096C233.81 14.7524 234.561 14.6241 235.195 14.2492C235.829 13.8743 236.304 13.2791 236.527 12.5769C236.751 11.8748 236.708 11.1149 236.408 10.4422C236.107 9.76949 235.569 9.23096 234.897 8.92933L235.721 6.66667H236.352L237.407 10.58L237.408 10.5793L237.407 10.5833L239.357 11.2927C239.286 11.8542 239.376 12.4241 239.616 12.9367C239.856 13.4493 240.236 13.8836 240.712 14.1896C241.188 14.4955 241.741 14.6606 242.306 14.6657C242.872 14.6708 243.428 14.5157 243.91 14.2184C244.391 13.9211 244.779 13.4937 245.028 12.9855C245.277 12.4773 245.377 11.9091 245.316 11.3464C245.256 10.7837 245.038 10.2496 244.687 9.8056C244.336 9.36163 243.867 9.02595 243.333 8.83733ZM242 8.68467C241.558 8.73418 241.132 8.88149 240.754 9.11591C240.375 9.35033 240.054 9.66599 239.813 10.04L238.508 9.56467L237.731 6.66667H238.096L240 8H242V8.68467ZM242.333 13.3333C241.891 13.3333 241.468 13.1577 241.155 12.8452C240.842 12.5326 240.667 12.1087 240.667 11.6667C240.667 11.2246 240.842 10.8007 241.155 10.4882C241.468 10.1756 241.891 10 242.333 10C242.775 10 243.199 10.1756 243.512 10.4882C243.825 10.8007 244 11.2246 244 11.6667C244 12.1087 243.825 12.5326 243.512 12.8452C243.199 13.1577 242.775 13.3333 242.333 13.3333ZM233.667 13.3333C233.225 13.3333 232.801 13.1577 232.488 12.8452C232.176 12.5326 232 12.1087 232 11.6667C232 11.2246 232.176 10.8007 232.488 10.4882C232.801 10.1756 233.225 10 233.667 10C234.109 10 234.533 10.1756 234.845 10.4882C235.158 10.8007 235.333 11.2246 235.333 11.6667C235.333 12.1087 235.158 12.5326 234.845 12.8452C234.533 13.1577 234.109 13.3333 233.667 13.3333Z" fill="#DC143C"/>
<defs>
<clipPath id="clip0_5_3570">
<rect width="17.5" height="14" fill="white" transform="translate(109 135)"/>
</clipPath>
<clipPath id="clip1_5_3570">
<rect width="17.5" height="14" fill="white" transform="translate(79 6)"/>
</clipPath>
<clipPath id="clip2_5_3570">
<rect width="17.5" height="14" fill="white" transform="matrix(-1 0 0 1 237 232)"/>
</clipPath>
</defs>
</svg>
