<svg width="24" height="24" viewBox="0 0 24 24" fill="none" xmlns="http://www.w3.org/2000/svg">
<path fill-rule="evenodd" clip-rule="evenodd" d="M19.266 10.4838C20.2579 11.2513 20.2579 12.7487 19.266 13.5162C16.2685 15.8356 12.9213 17.6638 9.34976 18.9322L8.69728 19.164C7.44901 19.6073 6.1305 18.7628 5.96151 17.4742C5.48935 13.874 5.48935 10.126 5.96151 6.5258C6.1305 5.23725 7.44901 4.39269 8.69729 4.83603L9.34976 5.06777C12.9213 6.33625 16.2685 8.1644 19.266 10.4838ZM18.3481 12.3299C18.5639 12.1629 18.5639 11.8371 18.3481 11.6701C15.4763 9.44802 12.2695 7.69654 8.84774 6.48126L8.19526 6.24953C7.87031 6.13412 7.49688 6.35407 7.44877 6.72085C6.9936 10.1916 6.9936 13.8084 7.44877 17.2792C7.49688 17.6459 7.87031 17.8659 8.19526 17.7505L8.84774 17.5188C12.2695 16.3035 15.4763 14.552 18.3481 12.3299Z" fill="black"/>
</svg>
