<svg width="24" height="26" viewBox="0 0 24 26" fill="none" xmlns="http://www.w3.org/2000/svg">
<path fill-rule="evenodd" clip-rule="evenodd" d="M14.2386 3.01432C12.9876 1.83021 11.0124 1.83021 9.76139 3.01432L3.11313 9.30704C2.95024 9.46122 2.84067 9.66205 2.79995 9.88109C2.00366 14.1645 1.94488 18.5497 2.62609 22.8525L2.78778 23.8738H7.06499V15.0693C7.06499 14.4821 7.54752 14.0061 8.14275 14.0061H15.8572C16.4525 14.0061 16.935 14.4821 16.935 15.0693V23.8738H21.2122L21.3739 22.8525C22.0551 18.5497 21.9963 14.1645 21.2 9.88109C21.1593 9.66205 21.0498 9.46122 20.8869 9.30704L14.2386 3.01432ZM8.26898 1.48014C10.354 -0.493381 13.646 -0.493381 15.731 1.48014L22.3793 7.77286C22.8687 8.23609 23.1979 8.8395 23.3202 9.49758C24.1602 14.016 24.2222 18.6418 23.5036 23.1805L23.2439 24.8212C23.1364 25.4998 22.544 26 21.8478 26H15.8572C15.262 26 14.7795 25.524 14.7795 24.9369V16.1324H9.22051V24.9369C9.22051 25.524 8.73798 26 8.14275 26H2.15223C1.45602 26 0.86356 25.4998 0.756136 24.8212L0.496378 23.1805C-0.222198 18.6418 -0.160195 14.016 0.679783 9.49758C0.80212 8.8395 1.13132 8.23609 1.62072 7.77286L8.26898 1.48014Z" fill="#DC143C"/>
</svg>
