<svg width="24" height="24" viewBox="0 0 24 24" fill="none" xmlns="http://www.w3.org/2000/svg">
<path fill-rule="evenodd" clip-rule="evenodd" d="M12.1387 4.57479C13.1912 3.69769 14.7973 4.33145 14.9672 5.69094C15.4909 9.88068 15.4909 14.1193 14.9672 18.3091C14.7973 19.6685 13.1912 20.3023 12.1387 19.4252L7.798 15.8079C7.75307 15.7705 7.69643 15.75 7.63795 15.75H4C3.0335 15.75 2.25 14.9665 2.25 14V10C2.25 9.0335 3.0335 8.25 4 8.25H7.63795C7.69643 8.25 7.75307 8.22949 7.798 8.19205L12.1387 4.57479ZM13.4788 5.87699C13.456 5.69444 13.2403 5.60935 13.099 5.72712L8.75827 9.34438C8.44377 9.60647 8.04734 9.75 7.63795 9.75H4C3.86193 9.75 3.75 9.86193 3.75 10V14C3.75 14.1381 3.86193 14.25 4 14.25H7.63795C8.04734 14.25 8.44377 14.3935 8.75827 14.6556L13.099 18.2729C13.2403 18.3906 13.456 18.3056 13.4788 18.123C13.9871 14.0568 13.9871 9.94317 13.4788 5.87699Z" fill="black"/>
<path d="M19.9082 5.94577C20.3014 5.8157 20.7257 6.02906 20.8557 6.42233C21.4362 8.17729 21.75 10.0528 21.75 12C21.75 13.9473 21.4362 15.8227 20.8557 17.5777C20.7257 17.9709 20.3014 18.1843 19.9082 18.0542C19.5149 17.9242 19.3015 17.4999 19.4316 17.1067C19.9624 15.5017 20.25 13.7852 20.25 12C20.25 10.2148 19.9624 8.49827 19.4316 6.89334C19.3015 6.50008 19.5149 6.07584 19.9082 5.94577Z" fill="black"/>
<path d="M18.0323 7.9477C17.8894 7.5589 17.4584 7.35952 17.0696 7.50237C16.6808 7.64522 16.4815 8.07621 16.6243 8.46501C17.0288 9.56595 17.25 10.7563 17.25 12C17.25 13.0316 17.0978 14.0263 16.8152 14.9637C16.7995 15.0159 16.7833 15.0679 16.7668 15.1198C16.7222 15.2595 16.6747 15.3979 16.6243 15.535C16.4815 15.9238 16.6808 16.3548 17.0696 16.4976C17.4584 16.6405 17.8894 16.4411 18.0323 16.0523C18.0901 15.895 18.1446 15.7362 18.1958 15.5759C18.2148 15.5163 18.2333 15.4566 18.2514 15.3967C18.5758 14.3204 18.75 13.1799 18.75 12C18.75 10.5772 18.4968 9.21187 18.0323 7.9477Z" fill="black"/>
</svg>
