<svg width="24" height="24" viewBox="0 0 24 24" fill="none" xmlns="http://www.w3.org/2000/svg">
<path d="M6.42883 2.41303C6.70119 2.10095 6.66899 1.62717 6.35692 1.35481C6.04484 1.08245 5.57106 1.11464 5.2987 1.42672L4.00689 2.90689C3.27413 3.74649 2.8599 4.81701 2.83666 5.93116L2.77998 8.64882C2.77135 9.06294 3.10006 9.40566 3.51418 9.41429C3.9283 9.42293 4.27102 9.09422 4.27966 8.6801L4.33634 5.96244C4.35223 5.20012 4.63565 4.46767 5.13702 3.8932L6.42883 2.41303Z" fill="black"/>
<path fill-rule="evenodd" clip-rule="evenodd" d="M6.23703 7.70081C6.37593 5.48007 8.21752 3.75006 10.4426 3.75006H11V3.00006C11 2.44778 11.4477 2.00006 12 2.00006C12.5523 2.00006 13 2.44778 13 3.00006V3.75006H13.5574C15.7825 3.75006 17.6241 5.48007 17.763 7.70081L17.984 11.2343C18.0682 12.5815 18.5205 13.8797 19.2916 14.9876C19.9883 15.9887 19.3681 17.3713 18.1571 17.5166L14.75 17.9254V19.0001C14.75 20.5188 13.5188 21.7501 12 21.7501C10.4812 21.7501 9.25001 20.5188 9.25001 19.0001V17.9254L5.84288 17.5166C4.63196 17.3713 4.01173 15.9887 4.70842 14.9876C5.47948 13.8797 5.93177 12.5815 6.01603 11.2343L6.23703 7.70081ZM10.75 19.0001C10.75 19.6904 11.3097 20.2501 12 20.2501C12.6904 20.2501 13.25 19.6904 13.25 19.0001V18.2501H10.75V19.0001Z" fill="black"/>
<path d="M17.6431 1.35481C17.331 1.62717 17.2988 2.10095 17.5712 2.41303L18.863 3.8932C19.3644 4.46767 19.6478 5.20012 19.6637 5.96244L19.7204 8.6801C19.729 9.09422 20.0717 9.42293 20.4858 9.4143C20.9 9.40566 21.2287 9.06294 21.22 8.64882L21.1634 5.93116C21.1401 4.81701 20.7259 3.74649 19.9931 2.90689L18.7013 1.42672C18.429 1.11464 17.9552 1.08245 17.6431 1.35481Z" fill="black"/>
</svg>
