<svg width="32" height="32" viewBox="0 0 32 32" fill="none" xmlns="http://www.w3.org/2000/svg">
<rect width="32" height="32" fill="white"/>
<path d="M14.7654 3.51075C15.1921 2.38541 16.8068 2.38541 17.2348 3.51075L19.9948 11.1561C20.0911 11.4051 20.2606 11.6191 20.481 11.7698C20.7015 11.9205 20.9624 12.0008 21.2294 12.0001H28.0121C29.2654 12.0001 29.8121 13.5601 28.8268 14.3241L24.0001 18.6667C23.7839 18.833 23.6259 19.0634 23.5488 19.325C23.4716 19.5865 23.4793 19.8658 23.5708 20.1227L25.3334 27.5934C25.7628 28.7934 24.3734 29.8241 23.3228 29.0854L16.7668 24.9254C16.5423 24.7676 16.2745 24.683 16.0001 24.683C15.7257 24.683 15.458 24.7676 15.2334 24.9254L8.67744 29.0854C7.6281 29.8241 6.23744 28.7921 6.66677 27.5934L8.42944 20.1227C8.52087 19.8658 8.52858 19.5865 8.45145 19.325C8.37432 19.0634 8.21631 18.833 8.0001 18.6667L3.17344 14.3241C2.18677 13.5601 2.7361 12.0001 3.98677 12.0001H10.7694C11.0365 12.001 11.2975 11.9208 11.518 11.77C11.7385 11.6193 11.908 11.4052 12.0041 11.1561L14.7641 3.51075H14.7654Z" stroke="#1B1D1F" stroke-linecap="round" stroke-linejoin="round"/>
</svg>
