<svg width="24" height="24" viewBox="0 0 24 24" fill="none" xmlns="http://www.w3.org/2000/svg">
<path fill-rule="evenodd" clip-rule="evenodd" d="M4.65 16.7998C4.71986 16.7066 4.81045 16.631 4.91459 16.5789C5.01873 16.5269 5.13357 16.4998 5.25 16.4998H9C9.19891 16.4998 9.38968 16.5788 9.53033 16.7194C9.67098 16.8601 9.75 17.0509 9.75 17.2498C9.75 17.4487 9.67098 17.6395 9.53033 17.7801C9.38968 17.9208 9.19891 17.9998 9 17.9998H5.625L2.25 22.4999H21.75L18.375 17.9998H15C14.8011 17.9998 14.6103 17.9208 14.4697 17.7801C14.329 17.6395 14.25 17.4487 14.25 17.2498C14.25 17.0509 14.329 16.8601 14.4697 16.7194C14.6103 16.5788 14.8011 16.4998 15 16.4998H18.75C18.8664 16.4998 18.9813 16.5269 19.0854 16.5789C19.1896 16.631 19.2801 16.7066 19.35 16.7998L23.85 22.7999C23.9336 22.9113 23.9845 23.0438 23.997 23.1826C24.0095 23.3213 23.9831 23.4608 23.9208 23.5853C23.8585 23.7099 23.7628 23.8147 23.6443 23.8879C23.5258 23.9611 23.3893 23.9999 23.25 23.9999H0.75C0.610716 23.9999 0.474184 23.9611 0.355702 23.8879C0.23722 23.8147 0.14147 23.7099 0.07918 23.5853C0.0168903 23.4608 -0.00947761 23.3213 0.00303087 23.1826C0.0155393 23.0438 0.06643 22.9113 0.15 22.7999L4.65 16.7998Z" fill="#DC143C"/>
<path fill-rule="evenodd" clip-rule="evenodd" d="M6 5.99959C6.00011 4.8449 6.33339 3.71477 6.95984 2.7448C7.5863 1.77483 8.47932 1.00623 9.53176 0.531217C10.5842 0.0562076 11.7513 -0.10503 12.8931 0.0668506C14.0349 0.238731 15.1029 0.73643 15.9688 1.50023C16.8348 2.26402 17.462 3.26147 17.7751 4.37288C18.0883 5.48429 18.0741 6.66246 17.7343 7.76601C17.3945 8.86956 16.7434 9.85162 15.8593 10.5943C14.9752 11.3371 13.8956 11.8089 12.75 11.9532V20.2499C12.75 20.4489 12.671 20.6396 12.5303 20.7803C12.3897 20.9209 12.1989 21 12 21C11.8011 21 11.6103 20.9209 11.4697 20.7803C11.329 20.6396 11.25 20.4489 11.25 20.2499V11.9547C9.79945 11.772 8.46553 11.0659 7.49882 9.96904C6.53211 8.87221 5.99913 7.46014 6 5.99809V5.99959Z" fill="#DC143C"/>
</svg>
