<svg width="24" height="24" viewBox="0 0 24 24" fill="none" xmlns="http://www.w3.org/2000/svg">
<path d="M19.8361 16.9065C20.2793 12.647 20.2793 8.35301 19.8361 4.09352C19.6975 2.76121 18.1614 2.08633 17.0863 2.88544L12.9827 5.93585C11.6891 6.89742 10.1202 7.41667 8.50838 7.41667H4.67918C4.1269 7.41667 3.67918 7.86438 3.67918 8.41667V12.5833C3.67918 13.1356 4.1269 13.5833 4.67918 13.5833L8.50838 13.5833C10.1202 13.5833 11.6891 14.1026 12.9827 15.0642L17.0863 18.1146C18.1614 18.9137 19.6975 18.2388 19.8361 16.9065Z" fill="black"/>
<path d="M9.09261 15.802C9.15005 15.5775 9.10053 15.3391 8.95846 15.1561C8.81639 14.9731 8.59771 14.866 8.36603 14.866L6.36603 14.866C6.08195 14.866 5.82225 15.0265 5.6952 15.2806L4.6952 17.2806C4.52443 17.6222 4.63754 18.0375 4.95792 18.2453L7.09189 19.6293C7.2945 19.7607 7.54799 19.7865 7.77292 19.6986C7.99785 19.6107 8.16671 19.4199 8.22658 19.186L9.09261 15.802Z" fill="black"/>
</svg>
