<svg width="24" height="24" viewBox="0 0 24 24" fill="none" xmlns="http://www.w3.org/2000/svg">
<path fill-rule="evenodd" clip-rule="evenodd" d="M4.59187 15.28C2.344 9.77128 6.40311 3.74414 12.3609 3.74414H12.6823C17.138 3.74414 20.75 7.3504 20.75 11.7989C20.75 16.7519 16.7284 20.767 11.7676 20.767H3.94735C3.6291 20.767 3.34549 20.5664 3.23987 20.2667C3.13424 19.967 3.22959 19.6333 3.47773 19.4343L5.44922 17.8536C5.53543 17.7845 5.56592 17.667 5.5242 17.5648L4.59187 15.28ZM12.3609 5.24175C7.46839 5.24175 4.13507 10.1912 5.98101 14.7149L6.91334 16.9998C7.20534 17.7153 6.99189 18.5374 6.38847 19.0213L6.07902 19.2694H11.7676C15.9 19.2694 19.25 15.9247 19.25 11.7989C19.25 8.17751 16.3096 5.24175 12.6823 5.24175H12.3609Z" fill="#DC143C"/>
</svg>
