<svg width="42" height="42" viewBox="0 0 42 42" fill="none" xmlns="http://www.w3.org/2000/svg">
<circle cx="21" cy="21" r="21" fill="white"/>
<path fill-rule="evenodd" clip-rule="evenodd" d="M9.80005 13C9.80005 12.5756 9.96862 12.1687 10.2687 11.8686C10.5687 11.5686 10.9757 11.4 11.4 11.4H30.6C31.0244 11.4 31.4314 11.5686 31.7314 11.8686C32.0315 12.1687 32.2001 12.5756 32.2001 13C32.2001 13.4243 32.0315 13.8313 31.7314 14.1314C31.4314 14.4314 31.0244 14.6 30.6 14.6H11.4C10.9757 14.6 10.5687 14.4314 10.2687 14.1314C9.96862 13.8313 9.80005 13.4243 9.80005 13ZM9.80005 21C9.80005 20.5756 9.96862 20.1687 10.2687 19.8686C10.5687 19.5686 10.9757 19.4 11.4 19.4H21C21.4244 19.4 21.8314 19.5686 22.1314 19.8686C22.4315 20.1687 22.6 20.5756 22.6 21C22.6 21.4243 22.4315 21.8313 22.1314 22.1314C21.8314 22.4314 21.4244 22.6 21 22.6H11.4C10.9757 22.6 10.5687 22.4314 10.2687 22.1314C9.96862 21.8313 9.80005 21.4243 9.80005 21ZM9.80005 29C9.80005 28.5756 9.96862 28.1687 10.2687 27.8686C10.5687 27.5686 10.9757 27.4 11.4 27.4H30.6C31.0244 27.4 31.4314 27.5686 31.7314 27.8686C32.0315 28.1687 32.2001 28.5756 32.2001 29C32.2001 29.4243 32.0315 29.8313 31.7314 30.1314C31.4314 30.4314 31.0244 30.6 30.6 30.6H11.4C10.9757 30.6 10.5687 30.4314 10.2687 30.1314C9.96862 29.8313 9.80005 29.4243 9.80005 29Z" fill="black"/>
</svg>
