<svg width="24" height="24" viewBox="0 0 24 24" fill="none" xmlns="http://www.w3.org/2000/svg">
<path fill-rule="evenodd" clip-rule="evenodd" d="M18.4831 19.7901L18.4838 19.7884L18.5012 19.7449L21.5 4.6258V4.57669C21.5 4.19999 21.3608 3.87113 21.0579 3.67387C20.7928 3.50121 20.4881 3.48892 20.2744 3.50514C20.0483 3.52229 19.8352 3.57871 19.6877 3.62567C19.6118 3.64983 19.5483 3.67311 19.5028 3.69071C19.48 3.69955 19.4615 3.70705 19.4481 3.71263L19.4349 3.71819L2.71508 10.2771L2.71048 10.2788C2.70145 10.2821 2.68951 10.2865 2.67508 10.2921C2.64633 10.3033 2.60719 10.3193 2.56121 10.3402C2.47093 10.3811 2.34619 10.4442 2.21969 10.5309C2.00484 10.678 1.59572 11.0263 1.6648 11.5785C1.72202 12.036 2.03733 12.3265 2.2499 12.4769C2.36384 12.5575 2.47286 12.6156 2.55269 12.6536C2.59313 12.6729 2.62749 12.6876 2.65308 12.6981C2.66591 12.7033 2.67663 12.7075 2.68493 12.7106L2.69556 12.7146L2.70235 12.7171L5.62759 13.7019C5.61772 13.8854 5.63592 14.0726 5.68459 14.2572L7.14988 19.8156C7.32361 20.4747 7.91984 20.9337 8.60141 20.9333C9.21234 20.9328 9.75417 20.5632 9.98435 20.0118L12.272 17.5657L16.201 20.578L16.2569 20.6023C16.6138 20.7581 16.9474 20.8075 17.2523 20.7658C17.5568 20.7242 17.7987 20.5965 17.9805 20.4511C18.1594 20.308 18.2819 20.1465 18.359 20.0249C18.3982 19.9631 18.4274 19.9088 18.4476 19.868C18.4578 19.8475 18.4658 19.8301 18.4718 19.8166L18.4794 19.7991L18.4821 19.7927L18.4831 19.7901ZM7.13499 13.8748C7.10169 13.7485 7.15397 13.6151 7.26426 13.5451L17.1863 7.2442C17.1863 7.2442 17.7699 6.8899 17.749 7.2442C17.749 7.2442 17.8532 7.30676 17.5404 7.59849C17.2438 7.87557 10.4688 14.4166 9.78322 15.0785C9.74365 15.1167 9.72003 15.1605 9.70608 15.2137L8.60028 19.4332L7.13499 13.8748Z" fill="black"/>
</svg>
