<svg width="24" height="24" viewBox="0 0 24 24" fill="none" xmlns="http://www.w3.org/2000/svg">
<path d="M16.0659 8.99479C16.3587 8.7019 16.3587 8.22703 16.0659 7.93413C15.773 7.64124 15.2981 7.64124 15.0052 7.93413L12 10.9393L8.99479 7.93413C8.7019 7.64124 8.22703 7.64124 7.93413 7.93413C7.64124 8.22703 7.64124 8.7019 7.93413 8.99479L10.9393 12L7.93412 15.0052C7.64123 15.2981 7.64123 15.773 7.93412 16.0659C8.22702 16.3588 8.70189 16.3588 8.99478 16.0659L12 13.0607L15.0052 16.0659C15.2981 16.3588 15.773 16.3588 16.0659 16.0659C16.3588 15.773 16.3588 15.2981 16.0659 15.0052L13.0607 12L16.0659 8.99479Z" fill="black"/>
</svg>
