<svg width="24" height="24" viewBox="0 0 24 24" fill="none" xmlns="http://www.w3.org/2000/svg">
<path fill-rule="evenodd" clip-rule="evenodd" d="M6.76954 3.08151C10.2177 2.69614 13.7824 2.69614 17.2305 3.08151C19.1289 3.29369 20.6601 4.78947 20.8829 6.69452C21.2952 10.2195 21.2952 13.7806 20.8829 17.3056C20.6601 19.2106 19.1289 20.7064 17.2305 20.9186C13.7824 21.304 10.2177 21.304 6.76954 20.9186C4.87114 20.7064 3.33995 19.2106 3.11713 17.3056C2.70485 13.7806 2.70485 10.2195 3.11713 6.69452C3.33995 4.78947 4.87114 3.29369 6.76954 3.08151ZM16.4106 8.98009L17.25 8.17716L17.2493 8.00003H14.3476L12.2794 13.1602L9.92657 8.00068H6.88285V8.17716L7.86356 9.35779C7.91097 9.40047 7.94765 9.45373 7.97062 9.51325C7.99359 9.57276 8.0022 9.63685 7.99575 9.70032V14.3414C8.00982 14.4239 8.00431 14.5086 7.97965 14.5886C7.95499 14.6685 7.91188 14.7416 7.85379 14.8018L6.75 16.1401V16.3159H9.87708V16.1401L8.77394 14.8018C8.71538 14.7416 8.67128 14.6689 8.64499 14.5891C8.61871 14.5094 8.61091 14.4247 8.62221 14.3414V10.3281L11.367 16.3165H11.6861L14.0435 10.3281V15.1014C14.0435 15.2277 14.0435 15.2525 13.9601 15.3358L13.1116 16.159V16.3348H17.2292V16.159L16.4106 15.3554C16.3752 15.3283 16.3478 15.2922 16.3314 15.2507C16.315 15.2093 16.3102 15.1642 16.3175 15.1203V9.21518C16.3102 9.17123 16.315 9.12614 16.3314 9.08472C16.3478 9.04331 16.3752 9.00714 16.4106 8.98009Z" fill="black"/>
</svg>
