<svg width="62" height="62" viewBox="0 0 62 62" fill="none" xmlns="http://www.w3.org/2000/svg">
<path fill-rule="evenodd" clip-rule="evenodd" d="M40.1218 23.8158C40.3022 23.9958 40.4453 24.2096 40.543 24.445C40.6407 24.6804 40.691 24.9327 40.691 25.1875C40.691 25.4424 40.6407 25.6947 40.543 25.9301C40.4453 26.1655 40.3022 26.3793 40.1218 26.5593L28.4968 38.1843C28.3168 38.3647 28.103 38.5079 27.8676 38.6056C27.6322 38.7032 27.3799 38.7535 27.125 38.7535C26.8702 38.7535 26.6178 38.7032 26.3824 38.6056C26.147 38.5079 25.9332 38.3647 25.7533 38.1843L19.9408 32.3718C19.7606 32.1917 19.6177 31.9778 19.5202 31.7424C19.4227 31.5071 19.3726 31.2548 19.3726 31C19.3726 30.7453 19.4227 30.493 19.5202 30.2577C19.6177 30.0223 19.7606 29.8084 19.9408 29.6283C20.1209 29.4482 20.3348 29.3053 20.5701 29.2078C20.8055 29.1103 21.0577 29.0601 21.3125 29.0601C21.5673 29.0601 21.8195 29.1103 22.0549 29.2078C22.2903 29.3053 22.5041 29.4482 22.6843 29.6283L27.125 34.0729L37.3783 23.8158C37.5582 23.6354 37.772 23.4922 38.0074 23.3945C38.2428 23.2969 38.4952 23.2466 38.75 23.2466C39.0049 23.2466 39.2572 23.2969 39.4926 23.3945C39.728 23.4922 39.9418 23.6354 40.1218 23.8158V23.8158Z" fill="#DC143C"/>
<path d="M39.8079 9.73793L36.239 6.07993L39.0096 3.37518L41.4199 5.84356L44.8686 5.80093C46.3615 5.78326 47.8428 6.06427 49.2254 6.62742C50.6081 7.19058 51.8642 8.02451 52.9199 9.08018C53.9755 10.1359 54.8095 11.392 55.3726 12.7746C55.9358 14.1573 56.2168 15.6386 56.1991 17.1314L56.1604 20.5802L58.6249 22.9904C59.6923 24.0335 60.5404 25.2793 61.1195 26.6548C61.6986 28.0303 61.9969 29.5076 61.9969 31.0001C61.9969 32.4925 61.6986 33.9698 61.1195 35.3453C60.5404 36.7208 59.6923 37.9666 58.6249 39.0097L56.1565 41.4199L56.1991 44.8687C56.2168 46.3615 55.9358 47.8428 55.3726 49.2255C54.8095 50.6081 53.9755 51.8642 52.9199 52.9199C51.8642 53.9756 50.6081 54.8095 49.2254 55.3727C47.8428 55.9358 46.3615 56.2168 44.8686 56.1992L41.4199 56.1604L39.0096 58.6249C37.9666 59.6923 36.7207 60.5405 35.3452 61.1196C33.9697 61.6986 32.4924 61.9969 31 61.9969C29.5076 61.9969 28.0302 61.6986 26.6547 61.1196C25.2793 60.5405 24.0334 59.6923 22.9904 58.6249L20.5801 56.1565L17.1314 56.1992C15.6385 56.2168 14.1572 55.9358 12.7746 55.3727C11.3919 54.8095 10.1358 53.9756 9.08012 52.9199C8.02445 51.8642 7.19051 50.6081 6.62736 49.2255C6.06421 47.8428 5.7832 46.3615 5.80087 44.8687L5.83962 41.4199L3.37512 39.0097C2.30771 37.9666 1.45955 36.7208 0.880483 35.3453C0.301413 33.9698 0.00311279 32.4925 0.00311279 31.0001C0.00311279 29.5076 0.301413 28.0303 0.880483 26.6548C1.45955 25.2793 2.30771 24.0335 3.37512 22.9904L5.84349 20.5802L5.80087 17.1314C5.7832 15.6386 6.06421 14.1573 6.62736 12.7746C7.19051 11.392 8.02445 10.1359 9.08012 9.08018C10.1358 8.02451 11.3919 7.19058 12.7746 6.62742C14.1572 6.06427 15.6385 5.78326 17.1314 5.80093L20.5801 5.83968L22.9904 3.37518C24.0334 2.30777 25.2793 1.45961 26.6547 0.880544C28.0302 0.301474 29.5076 0.00317383 31 0.00317383C32.4924 0.00317383 33.9697 0.301474 35.3452 0.880544C36.7207 1.45961 37.9666 2.30777 39.0096 3.37518L36.239 6.07993C35.5568 5.3816 34.742 4.8267 33.8423 4.44784C32.9426 4.06898 31.9762 3.87382 31 3.87382C30.0238 3.87382 29.0574 4.06898 28.1577 4.44784C27.258 4.8267 26.4431 5.3816 25.761 6.07993L22.196 9.73793L17.081 9.67593C16.1052 9.66502 15.137 9.84924 14.2334 10.2178C13.3298 10.5863 12.509 11.1317 11.8191 11.8219C11.1292 12.5121 10.5843 13.3333 10.2162 14.2371C9.84816 15.1409 9.66445 16.1091 9.67587 17.0849L9.73787 22.1922L6.07987 25.7611C5.38154 26.4432 4.82664 27.2581 4.44778 28.1578C4.06892 29.0575 3.87375 30.0238 3.87375 31.0001C3.87375 31.9763 4.06892 32.9426 4.44778 33.8423C4.82664 34.742 5.38154 35.5569 6.07987 36.2391L9.73787 39.8041L9.67587 44.919C9.66496 45.8949 9.84918 46.863 10.2177 47.7666C10.5862 48.6702 11.1316 49.4911 11.8218 50.181C12.5121 50.8708 13.3332 51.4158 14.237 51.7838C15.1408 52.1519 16.1091 52.3356 17.0849 52.3242L22.1921 52.2622L25.761 55.9202C26.4431 56.6185 27.258 57.1734 28.1577 57.5523C29.0574 57.9311 30.0238 58.1263 31 58.1263C31.9762 58.1263 32.9426 57.9311 33.8423 57.5523C34.742 57.1734 35.5568 56.6185 36.239 55.9202L39.804 52.2622L44.919 52.3242C45.8948 52.3351 46.8629 52.1509 47.7666 51.7823C48.6702 51.4138 49.491 50.8684 50.1809 50.1782C50.8708 49.488 51.4157 48.6668 51.7838 47.763C52.1518 46.8592 52.3355 45.891 52.3241 44.9152L52.2621 39.8079L55.9201 36.2391C56.6184 35.5569 57.1733 34.742 57.5522 33.8423C57.9311 32.9426 58.1262 31.9763 58.1262 31.0001C58.1262 30.0238 57.9311 29.0575 57.5522 28.1578C57.1733 27.2581 56.6184 26.4432 55.9201 25.7611L52.2621 22.1961L52.3241 17.0811C52.335 16.1052 52.1508 15.1371 51.7823 14.2335C51.4138 13.3299 50.8684 12.509 50.1781 11.8191C49.4879 11.1293 48.6668 10.5843 47.763 10.2163C46.8592 9.84822 45.8909 9.66451 44.9151 9.67593L39.8079 9.73793V9.73793Z" fill="#DC143C"/>
</svg>
