<svg width="24" height="24" viewBox="0 0 24 24" fill="none" xmlns="http://www.w3.org/2000/svg">
<path fill-rule="evenodd" clip-rule="evenodd" d="M10.4188 4.23056C11.06 3.12566 12.75 3.58049 12.75 4.85792V16.5386C12.75 17.5594 12.1845 18.4962 11.2812 18.9719L8.00559 20.6966C6.70857 21.3796 5.19695 20.2608 5.47114 18.8208L6.17113 15.1448C6.25633 14.6974 6.09141 14.239 5.74067 13.9484L3.24176 11.8781C2.07748 10.9135 2.60188 9.02597 4.09688 8.80017L7.52653 8.28216C7.90159 8.22551 8.23064 8.00162 8.42101 7.67354L10.4188 4.23056ZM11.25 5.78688L9.71841 8.42637C9.29959 9.14815 8.57568 9.64071 7.75054 9.76534L4.3209 10.2833C4.10732 10.3156 4.03241 10.5853 4.19874 10.7231L6.69764 12.7934C7.46927 13.4327 7.83209 14.4411 7.64465 15.4254L6.94467 19.1014C6.9055 19.3071 7.12144 19.4669 7.30673 19.3694L10.5824 17.6446C10.993 17.4284 11.25 17.0026 11.25 16.5386V5.78688Z" fill="black"/>
</svg>
