<svg width="36" height="36" viewBox="0 0 36 36" fill="none" xmlns="http://www.w3.org/2000/svg">
<path d="M18 22.5C20.4853 22.5 22.5 20.4853 22.5 18C22.5 15.5147 20.4853 13.5 18 13.5C15.5147 13.5 13.5 15.5147 13.5 18C13.5 20.4853 15.5147 22.5 18 22.5Z" fill="#DC143C"/>
<path d="M19.5 6.1035V3H16.5V6.1035C13.8603 6.44003 11.407 7.6436 9.52529 9.52529C7.6436 11.407 6.44003 13.8603 6.1035 16.5H3V19.5H6.1035C6.43978 22.1398 7.64328 24.5932 9.52501 26.475C11.4068 28.3567 13.8602 29.5602 16.5 29.8965V33H19.5V29.8965C22.1398 29.5602 24.5932 28.3567 26.475 26.475C28.3567 24.5932 29.5602 22.1398 29.8965 19.5H33V16.5H29.8965C29.56 13.8603 28.3564 11.407 26.4747 9.52529C24.593 7.6436 22.1397 6.44003 19.5 6.1035ZM18 27C13.0365 27 9 22.9635 9 18C9 13.0365 13.0365 9 18 9C22.9635 9 27 13.0365 27 18C27 22.9635 22.9635 27 18 27Z" fill="#DC143C"/>
</svg>
