<svg width="24" height="24" viewBox="0 0 24 24" fill="none" xmlns="http://www.w3.org/2000/svg">
<path fill-rule="evenodd" clip-rule="evenodd" d="M6.76954 3.08151C10.2177 2.69614 13.7824 2.69614 17.2305 3.08151C19.1289 3.29369 20.6601 4.78947 20.8829 6.69452C21.2952 10.2195 21.2952 13.7806 20.8829 17.3056C20.6601 19.2106 19.1289 20.7064 17.2305 20.9186C13.7824 21.304 10.2177 21.304 6.76954 20.9186C4.87114 20.7064 3.33995 19.2106 3.11713 17.3056C2.70485 13.7806 2.70485 10.2195 3.11713 6.69452C3.33995 4.78947 4.87114 3.29369 6.76954 3.08151ZM10.873 16.4069C10.9219 16.2903 10.947 16.1653 10.9469 16.039V6.95853C10.9469 6.42953 10.5115 6.00003 9.9728 6.00003H6.97153C6.43534 6.00003 6 6.43003 6 6.95853V16.039C6.00027 16.2934 6.10263 16.5373 6.2847 16.7174C6.46677 16.8975 6.71372 16.9991 6.97153 17H9.9728C10.1008 17.0002 10.2275 16.9754 10.3457 16.9271C10.464 16.8789 10.5714 16.8081 10.6619 16.7189C10.7523 16.6296 10.8241 16.5236 10.873 16.4069ZM17.7155 12.7175C17.8975 12.5374 17.9999 12.2934 18 12.039V6.95853C18 6.42953 17.5642 6.00003 17.0285 6.00003H14.0272C13.4915 6.00003 13.0531 6.43003 13.0531 6.95853V12.039C13.0534 12.2938 13.1561 12.5381 13.3387 12.7183C13.5213 12.8984 13.7689 12.9998 14.0272 13H17.0285C17.2863 12.9992 17.5334 12.8977 17.7155 12.7175Z" fill="black"/>
</svg>
