<svg width="24" height="24" viewBox="0 0 24 24" fill="none" xmlns="http://www.w3.org/2000/svg">
<path fill-rule="evenodd" clip-rule="evenodd" d="M4.65 16.7994C4.71986 16.7062 4.81045 16.6306 4.91459 16.5786C5.01873 16.5265 5.13357 16.4994 5.25 16.4994H9C9.19891 16.4994 9.38968 16.5784 9.53033 16.7191C9.67098 16.8597 9.75 17.0505 9.75 17.2494C9.75 17.4483 9.67098 17.6391 9.53033 17.7797C9.38968 17.9204 9.19891 17.9994 9 17.9994H5.625L2.25 22.4994H21.75L18.375 17.9994H15C14.8011 17.9994 14.6103 17.9204 14.4697 17.7797C14.329 17.6391 14.25 17.4483 14.25 17.2494C14.25 17.0505 14.329 16.8597 14.4697 16.7191C14.6103 16.5784 14.8011 16.4994 15 16.4994H18.75C18.8664 16.4994 18.9813 16.5265 19.0854 16.5786C19.1896 16.6306 19.2801 16.7062 19.35 16.7994L23.85 22.7994C23.9336 22.9108 23.9845 23.0433 23.997 23.182C24.0095 23.3208 23.9831 23.4602 23.9208 23.5848C23.8585 23.7094 23.7628 23.8142 23.6443 23.8874C23.5258 23.9606 23.3893 23.9994 23.25 23.9994H0.75C0.610716 23.9994 0.474184 23.9606 0.355702 23.8874C0.23722 23.8142 0.14147 23.7094 0.07918 23.5848C0.0168903 23.4602 -0.00947761 23.3208 0.00303087 23.182C0.0155393 23.0433 0.06643 22.9108 0.15 22.7994L4.65 16.7994Z" fill="#DC143C"/>
<path fill-rule="evenodd" clip-rule="evenodd" d="M6 5.99944C6.00011 4.84478 6.33339 3.71468 6.95984 2.74473C7.5863 1.77479 8.47932 1.0062 9.53176 0.531204C10.5842 0.0562063 11.7513 -0.105028 12.8931 0.066849C14.0349 0.238726 15.1029 0.736412 15.9688 1.50019C16.8348 2.26397 17.462 3.26139 17.7751 4.37277C18.0883 5.48416 18.0741 6.6623 17.7343 7.76582C17.3945 8.86935 16.7434 9.85138 15.8593 10.5941C14.9752 11.3368 13.8956 11.8086 12.75 11.9529V20.2494C12.75 20.4484 12.671 20.6391 12.5303 20.7798C12.3897 20.9204 12.1989 20.9994 12 20.9994C11.8011 20.9994 11.6103 20.9204 11.4697 20.7798C11.329 20.6391 11.25 20.4484 11.25 20.2494V11.9544C9.79945 11.7717 8.46553 11.0656 7.49882 9.9688C6.53211 8.87199 5.99913 7.45996 6 5.99794V5.99944Z" fill="#DC143C"/>
</svg>
