<svg width="24" height="24" viewBox="0 0 24 24" fill="none" xmlns="http://www.w3.org/2000/svg">
<path fill-rule="evenodd" clip-rule="evenodd" d="M4.65 16.6118C4.71986 16.5197 4.81045 16.445 4.91459 16.3935C5.01873 16.342 5.13357 16.3152 5.25 16.3152H9C9.19891 16.3152 9.38968 16.3933 9.53033 16.5324C9.67098 16.6715 9.75 16.8601 9.75 17.0568C9.75 17.2535 9.67098 17.4421 9.53033 17.5812C9.38968 17.7203 9.19891 17.7984 9 17.7984H5.625L2.25 22.2482H21.75L18.375 17.7984H15C14.8011 17.7984 14.6103 17.7203 14.4697 17.5812C14.329 17.4421 14.25 17.2535 14.25 17.0568C14.25 16.8601 14.329 16.6715 14.4697 16.5324C14.6103 16.3933 14.8011 16.3152 15 16.3152H18.75C18.8664 16.3152 18.9813 16.342 19.0854 16.3935C19.1896 16.445 19.2801 16.5197 19.35 16.6118L23.85 22.5449C23.9336 22.6551 23.9845 22.7861 23.997 22.9232C24.0095 23.0604 23.9831 23.1983 23.9208 23.3215C23.8585 23.4447 23.7628 23.5483 23.6443 23.6207C23.5258 23.6931 23.3893 23.7315 23.25 23.7315H0.75C0.610716 23.7315 0.474184 23.6931 0.355702 23.6207C0.23722 23.5483 0.14147 23.4447 0.07918 23.3215C0.0168903 23.1983 -0.00947761 23.0604 0.00303087 22.9232C0.0155393 22.7861 0.06643 22.6551 0.15 22.5449L4.65 16.6118Z" fill="#DC143C"/>
<path fill-rule="evenodd" clip-rule="evenodd" d="M6 5.93248C6.00011 4.7907 6.33339 3.67321 6.95984 2.71409C7.5863 1.75498 8.47932 0.99497 9.53176 0.525275C10.5842 0.0555789 11.7513 -0.103855 12.8931 0.0661028C14.0349 0.236061 15.1029 0.728192 15.9688 1.48344C16.8348 2.23869 17.462 3.22498 17.7751 4.32397C18.0883 5.42295 18.0741 6.58793 17.7343 7.67914C17.3945 8.77035 16.7434 9.74142 15.8593 10.4758C14.9752 11.2102 13.8956 11.6768 12.75 11.8195V20.0234C12.75 20.2201 12.671 20.4087 12.5303 20.5478C12.3897 20.6869 12.1989 20.765 12 20.765C11.8011 20.765 11.6103 20.6869 11.4697 20.5478C11.329 20.4087 11.25 20.2201 11.25 20.0234V11.821C9.79945 11.6403 8.46553 10.9421 7.49882 9.85752C6.53211 8.77296 5.99913 7.37669 6 5.93099V5.93248Z" fill="#DC143C"/>
</svg>
