<svg width="42" height="42" viewBox="0 0 42 42" fill="none" xmlns="http://www.w3.org/2000/svg">
<circle cx="21" cy="21" r="21" fill="white"/>
<path fill-rule="evenodd" clip-rule="evenodd" d="M9.80005 12.9999C9.80005 12.5756 9.96862 12.1686 10.2687 11.8685C10.5687 11.5685 10.9757 11.3999 11.4 11.3999H30.6001C31.0244 11.3999 31.4314 11.5685 31.7314 11.8685C32.0315 12.1686 32.2001 12.5756 32.2001 12.9999C32.2001 13.4242 32.0315 13.8312 31.7314 14.1313C31.4314 14.4313 31.0244 14.5999 30.6001 14.5999H11.4C10.9757 14.5999 10.5687 14.4313 10.2687 14.1313C9.96862 13.8312 9.80005 13.4242 9.80005 12.9999ZM9.80005 20.9999C9.80005 20.5756 9.96862 20.1686 10.2687 19.8685C10.5687 19.5685 10.9757 19.3999 11.4 19.3999H21C21.4244 19.3999 21.8314 19.5685 22.1314 19.8685C22.4315 20.1686 22.6 20.5756 22.6 20.9999C22.6 21.4242 22.4315 21.8312 22.1314 22.1313C21.8314 22.4313 21.4244 22.5999 21 22.5999H11.4C10.9757 22.5999 10.5687 22.4313 10.2687 22.1313C9.96862 21.8312 9.80005 21.4242 9.80005 20.9999ZM9.80005 28.9999C9.80005 28.5756 9.96862 28.1686 10.2687 27.8685C10.5687 27.5685 10.9757 27.3999 11.4 27.3999H30.6001C31.0244 27.3999 31.4314 27.5685 31.7314 27.8685C32.0315 28.1686 32.2001 28.5756 32.2001 28.9999C32.2001 29.4242 32.0315 29.8312 31.7314 30.1313C31.4314 30.4313 31.0244 30.5999 30.6001 30.5999H11.4C10.9757 30.5999 10.5687 30.4313 10.2687 30.1313C9.96862 29.8312 9.80005 29.4242 9.80005 28.9999Z" fill="black"/>
</svg>
