<svg width="24" height="24" viewBox="0 0 24 24" fill="none" xmlns="http://www.w3.org/2000/svg">
<path fill-rule="evenodd" clip-rule="evenodd" d="M6.66421 4.41422C6.66421 4 7 3.66422 7.41421 3.66422H10.2426C10.6569 3.66422 10.9926 4 10.9926 4.41422C10.9926 4.82843 10.6569 5.16422 10.2426 5.16422H9.22487L11.8232 7.76256C11.9209 7.8602 12.0791 7.86019 12.1768 7.76256L16.0555 3.88389C16.3483 3.59099 16.8232 3.59099 17.1161 3.88389C17.409 4.17678 17.409 4.65165 17.1161 4.94455L13.2374 8.82323C12.554 9.50664 11.446 9.50664 10.7626 8.82322L8.16421 6.22488V7.24264C8.16421 7.65686 7.82843 7.99264 7.41421 7.99264C7 7.99264 6.66421 7.65686 6.66421 7.24264V4.41422Z" fill="black"/>
<path fill-rule="evenodd" clip-rule="evenodd" d="M17.9718 13.5721C13.956 12.084 9.51918 12.145 5.53792 13.7552L5.52535 13.7603L4.74452 14.0597C3.75034 14.441 3.15959 15.467 3.32893 16.5183L3.67497 18.6665C3.69611 18.7978 3.81622 18.8895 3.94838 18.8754L6.79062 18.5713C6.93191 18.5562 7.03221 18.4265 7.01131 18.286L6.79739 16.8476C6.74544 16.4982 6.94425 16.16 7.27473 16.0354C10.3113 14.891 13.671 14.891 16.7076 16.0354C17.0381 16.16 17.2369 16.4982 17.1849 16.8476L16.971 18.286C16.9501 18.4265 17.0504 18.5562 17.1917 18.5713L20.0343 18.8754C20.1665 18.8895 20.2866 18.7978 20.3077 18.6667L20.6564 16.5076C20.8273 15.4497 20.2284 14.4182 19.2251 14.042L17.9732 13.5726L17.9718 13.5721ZM4.98186 12.3621C9.30908 10.6138 14.1304 10.5485 18.4945 12.1662L18.4972 12.1671L19.7517 12.6375C21.4239 13.2645 22.422 14.9837 22.1373 16.7467L21.7886 18.9058C21.6403 19.824 20.7996 20.4658 19.8748 20.3669L17.0322 20.0628C16.0431 19.957 15.341 19.0492 15.4873 18.0653L15.6099 17.2411C13.2586 16.4891 10.7238 16.4891 8.37241 17.2411L8.49499 18.0653C8.6413 19.0492 7.9392 19.957 6.95015 20.0628L4.10791 20.3669C3.18282 20.4658 2.34201 19.8236 2.19406 18.9051L1.84801 16.7568C1.56579 15.0047 2.55038 13.2947 4.20733 12.6592L4.98186 12.3621Z" fill="black"/>
</svg>
