<svg width="24" height="26" viewBox="0 0 24 26" fill="none" xmlns="http://www.w3.org/2000/svg">
<path fill-rule="evenodd" clip-rule="evenodd" d="M14.2386 2.98067C12.9876 1.80977 11.0124 1.80977 9.76139 2.98067L3.11313 9.20313C2.95024 9.35558 2.84067 9.55418 2.79995 9.77077C2.00366 14.0064 1.94488 18.3426 2.62609 22.5973L2.78778 23.6072H7.06499V14.901C7.06499 14.3204 7.54752 13.8498 8.14275 13.8498H15.8572C16.4525 13.8498 16.935 14.3204 16.935 14.901V23.6072H21.2122L21.3739 22.5973C22.0551 18.3426 21.9963 14.0064 21.2 9.77077C21.1593 9.55418 21.0498 9.35558 20.8869 9.20313L14.2386 2.98067ZM8.26898 1.46362C10.354 -0.487872 13.646 -0.487872 15.731 1.46362L22.3793 7.68608C22.8687 8.14413 23.1979 8.74081 23.3202 9.39154C24.1602 13.8595 24.2222 18.4336 23.5036 22.9217L23.2439 24.5441C23.1364 25.2151 22.544 25.7097 21.8478 25.7097H15.8572C15.262 25.7097 14.7795 25.2391 14.7795 24.6585V15.9523H9.22051V24.6585C9.22051 25.2391 8.73798 25.7097 8.14275 25.7097H2.15223C1.45602 25.7097 0.86356 25.2151 0.756136 24.5441L0.496378 22.9217C-0.222198 18.4336 -0.160195 13.8595 0.679783 9.39154C0.80212 8.74081 1.13132 8.14413 1.62072 7.68608L8.26898 1.46362Z" fill="#DC143C"/>
</svg>
