<svg width="34" height="34" viewBox="0 0 34 34" fill="none" xmlns="http://www.w3.org/2000/svg">
<path d="M6.50466 10.0093H21.5002C22.3527 10.0093 23.0048 9.35722 23.0048 8.50465C23.0048 7.65211 22.3527 7 21.5002 7H6.50466C5.65211 7 5 7.65208 5 8.50465C5 9.3572 5.65209 10.0093 6.50466 10.0093V10.0093Z" fill="black"/>
<path d="M21.45 23.6506H6.50466C5.65211 23.6506 5 24.3027 5 25.1553C5 26.0078 5.65209 26.6599 6.50466 26.6599H21.5002C22.3527 26.6599 23.0048 26.0079 23.0048 25.1553C23.0045 24.3027 22.3023 23.6506 21.4498 23.6506H21.45Z" fill="black"/>
<path d="M27.4683 15.3254H6.50466C5.65211 15.3254 5 15.9775 5 16.8301C5 17.6827 5.65209 18.3347 6.50466 18.3347H27.5184C28.3709 18.3347 29.0231 17.6827 29.0231 16.8301C29.0227 15.9776 28.3206 15.3254 27.4681 15.3254H27.4683Z" fill="black"/>
</svg>
