<svg width="62" height="62" viewBox="0 0 62 62" fill="none" xmlns="http://www.w3.org/2000/svg">
<path fill-rule="evenodd" clip-rule="evenodd" d="M40.1218 23.8158C40.3022 23.9958 40.4453 24.2096 40.543 24.445C40.6407 24.6804 40.691 24.9327 40.691 25.1875C40.691 25.4424 40.6407 25.6947 40.543 25.9301C40.4453 26.1655 40.3022 26.3793 40.1218 26.5593L28.4968 38.1843C28.3168 38.3647 28.103 38.5079 27.8676 38.6056C27.6322 38.7032 27.3799 38.7535 27.125 38.7535C26.8702 38.7535 26.6178 38.7032 26.3824 38.6056C26.147 38.5079 25.9332 38.3647 25.7533 38.1843L19.9408 32.3718C19.7606 32.1917 19.6177 31.9778 19.5202 31.7424C19.4227 31.5071 19.3726 31.2548 19.3726 31C19.3726 30.7453 19.4227 30.493 19.5202 30.2577C19.6177 30.0223 19.7606 29.8084 19.9408 29.6283C20.1209 29.4482 20.3348 29.3053 20.5701 29.2078C20.8055 29.1103 21.0577 29.0601 21.3125 29.0601C21.5673 29.0601 21.8195 29.1103 22.0549 29.2078C22.2903 29.3053 22.5041 29.4482 22.6843 29.6283L27.125 34.0729L37.3783 23.8158C37.5582 23.6354 37.772 23.4922 38.0074 23.3945C38.2428 23.2969 38.4952 23.2466 38.75 23.2466C39.0049 23.2466 39.2572 23.2969 39.4926 23.3945C39.728 23.4922 39.9418 23.6354 40.1218 23.8158Z" fill="#DC143C"/>
<path d="M39.8079 9.73769L36.2391 6.07969L39.0097 3.37494L41.4199 5.84331L44.8687 5.80069C46.3615 5.78302 47.8428 6.06402 49.2255 6.62718C50.6081 7.19033 51.8642 8.02427 52.9199 9.07994C53.9756 10.1356 54.8095 11.3917 55.3727 12.7744C55.9358 14.157 56.2168 15.6383 56.1992 17.1312L56.1604 20.5799L58.6249 22.9902C59.6923 24.0332 60.5405 25.2791 61.1196 26.6546C61.6986 28.03 61.9969 29.5074 61.9969 30.9998C61.9969 32.4922 61.6986 33.9696 61.1196 35.3451C60.5405 36.7205 59.6923 37.9664 58.6249 39.0094L56.1565 41.4197L56.1992 44.8684C56.2168 46.3613 55.9358 47.8426 55.3727 49.2252C54.8095 50.6079 53.9756 51.864 52.9199 52.9197C51.8642 53.9753 50.6081 54.8093 49.2255 55.3724C47.8428 55.9356 46.3615 56.2166 44.8687 56.1989L41.4199 56.1602L39.0097 58.6247C37.9666 59.6921 36.7208 60.5402 35.3453 61.1193C33.9698 61.6984 32.4925 61.9967 31.0001 61.9967C29.5076 61.9967 28.0303 61.6984 26.6548 61.1193C25.2793 60.5402 24.0335 59.6921 22.9904 58.6247L20.5802 56.1563L17.1314 56.1989C15.6386 56.2166 14.1573 55.9356 12.7746 55.3724C11.392 54.8093 10.1359 53.9753 9.08018 52.9197C8.02451 51.864 7.19058 50.6079 6.62742 49.2252C6.06427 47.8426 5.78326 46.3613 5.80093 44.8684L5.83968 41.4197L3.37518 39.0094C2.30777 37.9664 1.45961 36.7205 0.880544 35.3451C0.301474 33.9696 0.00317383 32.4922 0.00317383 30.9998C0.00317383 29.5074 0.301474 28.03 0.880544 26.6546C1.45961 25.2791 2.30777 24.0332 3.37518 22.9902L5.84355 20.5799L5.80093 17.1312C5.78326 15.6383 6.06427 14.157 6.62742 12.7744C7.19058 11.3917 8.02451 10.1356 9.08018 9.07994C10.1359 8.02427 11.392 7.19033 12.7746 6.62718C14.1573 6.06402 15.6386 5.78302 17.1314 5.80069L20.5802 5.83944L22.9904 3.37494C24.0335 2.30753 25.2793 1.45937 26.6548 0.8803C28.0303 0.30123 29.5076 0.00292969 31.0001 0.00292969C32.4925 0.00292969 33.9698 0.30123 35.3453 0.8803C36.7208 1.45937 37.9666 2.30753 39.0097 3.37494L36.2391 6.07969C35.5569 5.38136 34.742 4.82645 33.8423 4.4476C32.9426 4.06874 31.9763 3.87357 31.0001 3.87357C30.0238 3.87357 29.0575 4.06874 28.1578 4.4476C27.2581 4.82645 26.4432 5.38136 25.7611 6.07969L22.1961 9.73769L17.0811 9.67568C16.1052 9.66478 15.1371 9.84899 14.2335 10.2175C13.3299 10.586 12.509 11.1314 11.8191 11.8217C11.1293 12.5119 10.5843 13.333 10.2163 14.2368C9.84822 15.1406 9.66451 16.1089 9.67593 17.0847L9.73793 22.1919L6.07993 25.7608C5.3816 26.443 4.8267 27.2578 4.44784 28.1575C4.06898 29.0572 3.87382 30.0236 3.87382 30.9998C3.87382 31.976 4.06898 32.9424 4.44784 33.8421C4.8267 34.7418 5.3816 35.5567 6.07993 36.2388L9.73793 39.8038L9.67593 44.9188C9.66502 45.8946 9.84924 46.8628 10.2178 47.7664C10.5863 48.67 11.1317 49.4908 11.8219 50.1807C12.5121 50.8706 13.3333 51.4155 14.2371 51.7836C15.1409 52.1516 16.1091 52.3354 17.0849 52.3239L22.1922 52.2619L25.7611 55.9199C26.4432 56.6183 27.2581 57.1732 28.1578 57.552C29.0575 57.9309 30.0238 58.126 31.0001 58.126C31.9763 58.126 32.9426 57.9309 33.8423 57.552C34.742 57.1732 35.5569 56.6183 36.2391 55.9199L39.8041 52.2619L44.919 52.3239C45.8949 52.3348 46.863 52.1506 47.7666 51.7821C48.6702 51.4136 49.4911 50.8682 50.181 50.178C50.8708 49.4877 51.4158 48.6666 51.7838 47.7628C52.1519 46.859 52.3356 45.8907 52.3242 44.9149L52.2622 39.8077L55.9202 36.2388C56.6185 35.5567 57.1734 34.7418 57.5523 33.8421C57.9311 32.9424 58.1263 31.976 58.1263 30.9998C58.1263 30.0236 57.9311 29.0572 57.5523 28.1575C57.1734 27.2578 56.6185 26.443 55.9202 25.7608L52.2622 22.1958L52.3242 17.0808C52.3351 16.105 52.1509 15.1368 51.7823 14.2332C51.4138 13.3296 50.8684 12.5088 50.1782 11.8189C49.488 11.129 48.6668 10.5841 47.763 10.216C46.8592 9.84798 45.891 9.66426 44.9152 9.67568L39.8079 9.73769Z" fill="#DC143C"/>
</svg>
