<svg width="64" height="33" viewBox="0 0 64 33" fill="none" xmlns="http://www.w3.org/2000/svg">
<path d="M63.989 18.0322C63.989 18.0322 60.045 12.1143 48.212 10.587C42.2758 6.27851 35.2963 3.65713 28.006 2.99805V0.00390625H26.484L22.54 3.27573C22.54 3.27573 8.63099 5.92076 5.86299 9.95923C2.19599 9.19359 3.78699 12.0479 3.78699 12.0479C3.78699 12.0479 1.01898 13.3709 1.29598 17.4084C-0.0190158 18.174 -0.15701 20.0534 0.11899 22.63C0.39599 25.1362 4.68599 26.8073 4.68599 26.8073H6.27799C6.38883 28.4855 7.12959 30.0584 8.35017 31.2075C9.57075 32.3567 11.1799 32.996 12.8515 32.996C14.5231 32.996 16.1322 32.3567 17.3528 31.2075C18.5734 30.0584 19.3141 28.4855 19.425 26.8073H44.613C44.7238 28.4855 45.4646 30.0584 46.6852 31.2075C47.9058 32.3567 49.5149 32.996 51.1865 32.996C52.8581 32.996 54.4672 32.3567 55.6878 31.2075C56.9084 30.0584 57.6491 28.4855 57.76 26.8073C59.2323 26.7132 60.6804 26.3841 62.05 25.8324C64.265 23.5355 63.988 18.0352 63.988 18.0352L63.989 18.0322ZM4.61599 16.1528C4.53308 16.4566 4.35211 16.7241 4.10157 16.9132C3.85103 17.1022 3.54513 17.2021 3.23199 17.1971H3.02799C2.95675 17.1983 2.8866 17.1794 2.82546 17.1426C2.76431 17.1058 2.71462 17.0526 2.68199 16.9888C1.98999 15.1779 3.85899 13.4383 3.85899 13.4383C3.93239 13.3083 4.03462 13.1971 4.15773 13.1133C4.28084 13.0295 4.4215 12.9754 4.56877 12.9553C4.71603 12.9351 4.86594 12.9495 5.00681 12.9971C5.14769 13.0448 5.27574 13.1245 5.38099 13.2301L4.61599 16.1528ZM12.916 31.1215C12.0372 31.1353 11.1742 30.8857 10.4369 30.4045C9.69949 29.9233 9.12109 29.2323 8.77526 28.4194C8.42944 27.6065 8.33182 26.7084 8.49484 25.8395C8.65787 24.9706 9.07415 24.1701 9.69072 23.54C10.3073 22.9098 11.0963 22.4785 11.9572 22.3009C12.8182 22.1232 13.7122 22.2073 14.5256 22.5425C15.3389 22.8776 16.0347 23.4486 16.5245 24.1828C17.0143 24.917 17.2759 25.7812 17.276 26.6655C17.2854 27.2471 17.1797 27.8247 16.965 28.3647C16.7504 28.9048 16.431 29.3964 16.0256 29.8111C15.6202 30.2257 15.1368 30.555 14.6036 30.7798C14.0704 31.0046 13.4981 31.1204 12.92 31.1205L12.916 31.1215ZM11.601 12.3236C11.4839 12.3213 11.3685 12.2955 11.2615 12.2476C11.1545 12.1998 11.0581 12.1308 10.978 12.0449L9.87099 10.7913C9.78699 10.6889 9.72534 10.5698 9.69005 10.4419C9.65476 10.314 9.6466 10.18 9.66612 10.0487C9.68565 9.91734 9.73241 9.79163 9.80336 9.67967C9.87432 9.56772 9.96789 9.47205 10.078 9.39884C14.991 6.26586 21.911 5.56963 24.402 5.36036C24.5262 5.34889 24.6515 5.3639 24.7696 5.4044C24.8877 5.44491 24.996 5.50999 25.0874 5.59543C25.1789 5.68086 25.2514 5.78472 25.3002 5.90024C25.3491 6.01575 25.3732 6.14034 25.371 6.26586V11.4181C25.3669 11.6569 25.2707 11.8849 25.1028 12.0538C24.9349 12.2227 24.7084 12.3194 24.471 12.3236H11.601ZM43.987 20.6742H41.287V17.9577H38.587V20.6742H35.887V17.9577H33.187V20.6742H30.487V17.9577H27.787V20.6742H25.087V17.9577H22.387V20.6742H19.687V17.9577H22.387V15.3127H25.087V17.9577H27.787V15.3127H30.487V17.9577H33.187V15.3127H35.887V18.0292H38.587V15.3127H41.287V17.9577H43.987V20.6742ZM43.572 12.3236H28.559C28.4309 12.3267 28.3035 12.3037 28.1845 12.2558C28.0655 12.2079 27.9574 12.1363 27.8668 12.0451C27.7762 11.9539 27.7049 11.8452 27.6573 11.7255C27.6097 11.6057 27.5868 11.4776 27.59 11.3487V6.33528C27.5808 6.20487 27.5995 6.07398 27.645 5.9515C27.6904 5.82901 27.7615 5.71779 27.8534 5.62535C27.9452 5.5329 28.0558 5.4614 28.1775 5.41569C28.2993 5.36997 28.4294 5.35109 28.559 5.36036C33.541 5.42978 44.336 9.67653 44.82 10.9995C45.374 12.3216 43.575 12.3216 43.575 12.3216L43.572 12.3236ZM51.184 31.1215C50.3052 31.1353 49.4422 30.8857 48.7049 30.4045C47.9675 29.9233 47.3891 29.2323 47.0433 28.4194C46.6974 27.6065 46.5998 26.7084 46.7628 25.8395C46.9259 24.9706 47.3421 24.1701 47.9587 23.54C48.5753 22.9098 49.3643 22.4785 50.2252 22.3009C51.0862 22.1232 51.9802 22.2073 52.7936 22.5425C53.6069 22.8776 54.3027 23.4486 54.7925 24.1828C55.2823 24.917 55.5439 25.7812 55.544 26.6655C55.5534 27.2471 55.4477 27.8248 55.2329 28.365C55.0182 28.9051 54.6987 29.3968 54.2932 29.8114C53.8877 30.2261 53.4042 30.5554 52.8709 30.7801C52.3376 31.0049 51.7652 31.1206 51.187 31.1205L51.184 31.1215ZM60.528 16.6377L57.828 16.9164C57.1978 16.9954 56.5602 16.8474 56.028 16.4989L51.945 13.8538C51.945 13.8538 51.322 11.9744 53.19 12.5308C54.574 12.9483 58.795 15.037 60.733 16.0119C60.8004 16.0503 60.8525 16.111 60.8803 16.1837C60.9081 16.2564 60.9099 16.3366 60.8855 16.4105C60.861 16.4845 60.8118 16.5475 60.7462 16.589C60.6806 16.6304 60.6028 16.6476 60.526 16.6377H60.528Z" fill="black"/>
</svg>
