<svg width="24" height="24" viewBox="0 0 24 24" fill="none" xmlns="http://www.w3.org/2000/svg">
<path fill-rule="evenodd" clip-rule="evenodd" d="M5.39858 14.9445C7.85537 17.4013 11.7348 17.5684 14.3851 15.4457L19.5407 20.6014C19.8336 20.8943 20.3085 20.8943 20.6014 20.6014C20.8943 20.3085 20.8943 19.8336 20.6014 19.5407L15.4457 14.3851C17.5684 11.7348 17.4013 7.85538 14.9445 5.3986C12.3085 2.76256 8.03462 2.76256 5.39858 5.3986C2.76254 8.03464 2.76254 12.3085 5.39858 14.9445ZM7.7 9.45001C7.28578 9.45001 6.95 9.7858 6.95 10.2C6.95 10.6142 7.28578 10.95 7.7 10.95H12.7C13.1142 10.95 13.45 10.6142 13.45 10.2C13.45 9.7858 13.1142 9.45001 12.7 9.45001H7.7Z" fill="black"/>
</svg>
