<svg width="10" height="16" viewBox="0 0 10 16" fill="none" xmlns="http://www.w3.org/2000/svg">
<g clip-path="url(#clip0_55_2882)">
<path d="M9.76467 9.09434C9.74519 9.03981 9.72202 8.98666 9.69533 8.93526L9.69867 8.94258C9.60133 8.71561 8.81867 7.20602 8.688 7.00035L5.054 -0.000488281L1.32733 7.17207C1.20067 7.37841 0.506 8.71628 0.41 8.94258L0.372 9.02645C0.12415 9.62956 -0.00225745 10.2755 1.50594e-07 10.9274C1.50594e-07 12.2659 0.532544 13.5495 1.48048 14.4959C2.42841 15.4423 3.71409 15.974 5.05467 15.974C6.39525 15.974 7.68092 15.4423 8.62886 14.4959C9.57679 13.5495 10.1093 12.2659 10.1093 10.9274V10.9234L10.11 10.8562C10.11 10.2205 9.98333 9.61418 9.75333 9.06173L9.76467 9.09301V9.09434ZM5.05667 14.6555C4.41005 14.6556 3.77455 14.4876 3.21272 14.168C2.65089 13.8485 2.1821 13.3883 1.85251 12.8329C1.52293 12.2775 1.3439 11.6459 1.33305 11.0004C1.32221 10.3549 1.47992 9.71773 1.79067 9.15158L1.78067 9.17088C1.73183 9.43007 1.70728 9.69323 1.70733 9.95696V9.95763C1.70804 11.1395 2.17858 12.2727 3.01559 13.1083C3.8526 13.944 4.98762 14.4138 6.17133 14.4145C6.24667 14.4145 6.32733 14.4145 6.402 14.4105C5.97591 14.574 5.52313 14.6571 5.06667 14.6555H5.05133H5.052H5.05667Z" fill="#DC143C"/>
</g>
<defs>
<clipPath id="clip0_55_2882">
<rect width="10" height="15.9745" fill="white"/>
</clipPath>
</defs>
</svg>
