<svg width="20" height="20" viewBox="0 0 20 20" fill="none" xmlns="http://www.w3.org/2000/svg">
<path d="M1.15875 18.8377L1.16215 18.8411C1.25227 18.9319 1.35944 19.0039 1.47751 19.0532C1.59557 19.1024 1.7222 19.1278 1.85012 19.1279C1.95775 19.1278 2.06464 19.1101 2.16653 19.0753L7.71363 17.1936L18.3582 6.54909C19.0089 5.89831 19.3744 5.01568 19.3744 4.09537C19.3744 3.17506 19.0087 2.29246 18.3579 1.64173C17.7072 0.991001 16.8245 0.625448 15.9042 0.625488C14.9839 0.625529 14.1013 0.991159 13.4506 1.64194L2.80606 12.2865L0.924495 17.8334C0.865226 18.0059 0.855765 18.1916 0.897198 18.3692C0.938631 18.5469 1.02928 18.7092 1.15875 18.8377V18.8377ZM14.3345 2.52581C14.7514 2.11211 15.3152 1.88046 15.9025 1.88159C16.4899 1.88272 17.0528 2.11653 17.4681 2.53183C17.8834 2.94713 18.1172 3.51007 18.1183 4.09738C18.1194 4.68469 17.8877 5.24851 17.474 5.66538L16.0743 7.06515L12.9347 3.92558L14.3345 2.52581ZM3.89629 12.964L12.0508 4.80944L15.1904 7.94902L7.03582 16.1035L2.28449 17.7153L3.89629 12.964Z" fill="#1D1D1D"/>
</svg>
