<svg width="24" height="24" viewBox="0 0 24 24" fill="none" xmlns="http://www.w3.org/2000/svg">
<path d="M20.0283 14.0938C19.946 14.1664 19.8963 14.2691 19.8911 14.3787C19.8425 15.3913 19.7593 16.4027 19.6413 17.411C19.4872 18.7286 18.4217 19.7783 17.0916 19.9269C13.7358 20.302 10.2642 20.302 6.90836 19.9269C5.57826 19.7783 4.51277 18.7286 4.35866 17.411C3.95766 13.9824 3.95766 10.5189 4.35866 7.09033C4.51277 5.77266 5.57826 4.72304 6.90836 4.57438C9.12089 4.3271 11.3864 4.24297 13.6334 4.32176C13.7957 4.32745 13.9338 4.20399 13.9451 4.04202L13.9943 3.339C13.9973 3.29761 14.0014 3.25666 14.0064 3.21617C14.0309 3.02178 13.8961 2.8301 13.7003 2.82317C11.3747 2.74078 9.03273 2.82762 6.74175 3.08367C4.7297 3.30854 3.10536 4.89355 2.86881 6.91608C2.45427 10.4604 2.45427 14.0409 2.86881 17.5852C3.10536 19.6077 4.7297 21.1928 6.74175 21.4176C10.2083 21.8051 13.7917 21.8051 17.2582 21.4176C19.2703 21.1928 20.8946 19.6077 21.1312 17.5852C21.3002 16.1404 21.4003 14.6896 21.4315 13.2376C21.4354 13.0554 21.2119 12.9646 21.0839 13.0944C20.7438 13.4397 20.3917 13.773 20.0283 14.0938Z" fill="black"/>
<path d="M7.8672 15.5504C7.64597 15.4895 7.49463 15.2858 7.50015 15.0564L7.55938 12.5925C7.6442 9.06456 10.5285 6.24875 14.0575 6.24875L15.3149 6.24875C15.3412 5.62502 15.3771 5.0016 15.4225 4.37869L15.4903 3.44805C15.5317 2.88011 16.165 2.56262 16.6448 2.86924C18.7158 4.19253 20.5162 5.89762 21.95 7.89363L22.4061 8.52857C22.5313 8.70289 22.5313 8.93767 22.4061 9.11199L21.95 9.74693C20.5162 11.7429 18.7158 13.448 16.6448 14.7713C16.2497 15.0238 15.749 14.8531 15.562 14.4678C15.5227 14.3859 15.4975 14.2915 15.4903 14.1925L15.4225 13.2619C15.3683 12.519 15.3278 11.7754 15.3008 11.0314L14.9467 10.9781C12.6905 10.6385 10.4588 11.7273 9.33779 13.7145L8.43549 15.3141C8.39251 15.3902 8.33153 15.4518 8.26068 15.4951C8.14573 15.5653 8.00397 15.5881 7.8672 15.5504Z" fill="black"/>
</svg>
