<svg width="24" height="24" viewBox="0 0 24 24" fill="none" xmlns="http://www.w3.org/2000/svg">
<path fill-rule="evenodd" clip-rule="evenodd" d="M4.4765 10.481C6.41854 14.7107 9.87391 18.0737 14.1699 19.8973L14.9277 20.2349C16.5487 20.9572 18.4541 20.4442 19.4934 19.0058L20.7678 17.242C21.3127 16.4879 21.1722 15.4393 20.4481 14.8551L18.2234 13.0603C17.4492 12.4357 16.3108 12.5812 15.7186 13.3804L15.2224 14.0499C13.028 12.919 11.2357 11.1266 10.1047 8.93218L10.7742 8.43602C11.5734 7.84378 11.7189 6.70539 11.0943 5.93122L9.29927 3.70617C8.71528 2.98228 7.66705 2.84167 6.91293 3.38608L5.13964 4.66624C3.69165 5.71155 3.18173 7.63296 3.92083 9.25871L4.47533 10.4784L4.4765 10.481ZM14.7618 18.519C10.8081 16.8424 7.62759 13.7483 5.84027 9.85638L5.83968 9.85508L5.28634 8.63792C4.84288 7.66247 5.14883 6.50963 6.01762 5.88244L7.79092 4.60228C7.89865 4.52451 8.04839 4.54459 8.13182 4.64801L9.92686 6.87305C10.0161 6.98365 9.99531 7.14628 9.88114 7.23088L8.71276 8.09674C8.42901 8.30702 8.33041 8.68678 8.47603 9.00854C9.81396 11.9649 12.1897 14.3407 15.1461 15.6786C15.4678 15.8242 15.8476 15.7256 16.0579 15.4418L16.9237 14.2735C17.0083 14.1593 17.171 14.1385 17.2816 14.2277L19.5063 16.0225C19.6097 16.106 19.6298 16.2558 19.552 16.3635L18.2776 18.1273C17.654 18.9904 16.5108 19.2981 15.5381 18.8648L14.7743 18.5243L14.7618 18.519Z" fill="black"/>
<path d="M13.75 9C13.75 9.19891 13.829 9.38968 13.9697 9.53033C14.1103 9.67098 14.3011 9.75 14.5 9.75H18.3284C18.7426 9.75 19.0784 9.41421 19.0784 9C19.0784 8.58579 18.7426 8.25 18.3284 8.25H16.3107L19.4697 5.09099C19.7626 4.7981 19.7626 4.32322 19.4697 4.03033C19.1768 3.73744 18.7019 3.73744 18.409 4.03033L15.25 7.18934V5.17157C15.25 4.75736 14.9142 4.42157 14.5 4.42157C14.0858 4.42157 13.75 4.75736 13.75 5.17157V9Z" fill="black"/>
</svg>
