<svg width="339" height="124" viewBox="0 0 339 124" fill="none" xmlns="http://www.w3.org/2000/svg">
<path d="M0.873041 124V85.0218C0.873041 85.0218 37.0789 20.0577 52.0792 19.558C67.0794 19.0583 76.5881 69.5302 93.6568 69.5302C110.726 69.5302 117.074 86.5207 132.171 86.021C147.267 85.5213 160.619 37.548 171.56 37.548C182.502 37.548 196.279 75.2347 217.077 71.5291C225.125 70.0952 240.558 61.1846 249.026 37.548C257.624 13.5464 259.263 2.79573 268.283 1.06838C281.887 -1.53689 304.171 72.0286 309.861 85.0214C319.489 105.51 337.871 119.003 337.871 119.003V124H0.873041Z" fill="#06D91B" fill-opacity="0.5"/>
<path d="M0.873041 85.019C0.873041 85.019 37.0789 20.0545 52.0792 19.5548C67.0795 19.055 75.7128 69.5273 92.7815 69.5273C109.85 69.5273 117.95 86.5179 133.046 86.0182C148.143 85.5185 160.619 37.5449 171.56 37.5449C182.502 37.5449 196.279 75.2318 217.077 71.5262C225.125 70.0923 240.558 61.1816 249.026 37.5449C257.624 13.5431 259.263 2.79236 268.283 1.06499C281.887 -1.54029 305.643 76.0155 309.861 85.0186C319.927 106.507 337.871 119 337.871 119" stroke="#06D91B" stroke-width="2"/>
</svg>
