<svg width="24" height="24" viewBox="0 0 24 24" fill="none" xmlns="http://www.w3.org/2000/svg">
<path d="M11.9999 15.4258C13.9881 15.4258 15.5999 13.832 15.5999 11.866C15.5999 9.89994 13.9881 8.30615 11.9999 8.30615C10.0117 8.30615 8.3999 9.89994 8.3999 11.866C8.3999 13.832 10.0117 15.4258 11.9999 15.4258Z" fill="#DC143C"/>
<path d="M13.2 2.45509V0H10.8V2.45509C8.6882 2.72131 6.72559 3.67343 5.22024 5.16198C3.71488 6.65054 2.75202 8.59125 2.4828 10.6795H0V13.0527H2.4828C2.75183 15.141 3.71462 17.0818 5.22001 18.5704C6.7254 20.059 8.68813 21.0111 10.8 21.2771V23.7322H13.2V21.2771C15.3119 21.0111 17.2746 20.059 18.78 18.5704C20.2854 17.0818 21.2482 15.141 21.5172 13.0527H24V10.6795H21.5172C21.248 8.59125 20.2851 6.65054 18.7798 5.16198C17.2744 3.67343 15.3118 2.72131 13.2 2.45509V2.45509ZM12 18.9857C8.0292 18.9857 4.8 15.7926 4.8 11.8661C4.8 7.9396 8.0292 4.74644 12 4.74644C15.9708 4.74644 19.2 7.9396 19.2 11.8661C19.2 15.7926 15.9708 18.9857 12 18.9857Z" fill="#DC143C"/>
</svg>
