<svg width="62" height="62" viewBox="0 0 62 62" fill="none" xmlns="http://www.w3.org/2000/svg">
<path fill-rule="evenodd" clip-rule="evenodd" d="M40.1218 23.8158C40.3022 23.9958 40.4453 24.2096 40.543 24.445C40.6407 24.6804 40.691 24.9327 40.691 25.1875C40.691 25.4424 40.6407 25.6947 40.543 25.9301C40.4453 26.1655 40.3022 26.3793 40.1218 26.5593L28.4968 38.1843C28.3168 38.3647 28.103 38.5079 27.8676 38.6056C27.6322 38.7032 27.3799 38.7535 27.125 38.7535C26.8702 38.7535 26.6178 38.7032 26.3824 38.6056C26.147 38.5079 25.9332 38.3647 25.7533 38.1843L19.9408 32.3718C19.7606 32.1917 19.6177 31.9778 19.5202 31.7424C19.4227 31.5071 19.3726 31.2548 19.3726 31C19.3726 30.7453 19.4227 30.493 19.5202 30.2577C19.6177 30.0223 19.7606 29.8084 19.9408 29.6283C20.1209 29.4482 20.3348 29.3053 20.5701 29.2078C20.8055 29.1103 21.0577 29.0601 21.3125 29.0601C21.5673 29.0601 21.8195 29.1103 22.0549 29.2078C22.2903 29.3053 22.5041 29.4482 22.6843 29.6283L27.125 34.0729L37.3783 23.8158C37.5582 23.6354 37.772 23.4922 38.0074 23.3945C38.2428 23.2969 38.4952 23.2466 38.75 23.2466C39.0049 23.2466 39.2572 23.2969 39.4926 23.3945C39.728 23.4922 39.9418 23.6354 40.1218 23.8158Z" fill="#DC143C"/>
<path d="M39.8077 9.73769L36.2388 6.07969L39.0094 3.37494L41.4197 5.84331L44.8684 5.80069C46.3613 5.78302 47.8426 6.06402 49.2252 6.62718C50.6079 7.19033 51.864 8.02427 52.9197 9.07994C53.9753 10.1356 54.8093 11.3917 55.3724 12.7744C55.9356 14.157 56.2166 15.6383 56.1989 17.1312L56.1602 20.5799L58.6247 22.9902C59.6921 24.0332 60.5402 25.2791 61.1193 26.6546C61.6984 28.03 61.9967 29.5074 61.9967 30.9998C61.9967 32.4922 61.6984 33.9696 61.1193 35.3451C60.5402 36.7205 59.6921 37.9664 58.6247 39.0094L56.1563 41.4197L56.1989 44.8684C56.2166 46.3613 55.9356 47.8426 55.3724 49.2252C54.8093 50.6079 53.9753 51.864 52.9197 52.9197C51.864 53.9753 50.6079 54.8093 49.2252 55.3724C47.8426 55.9356 46.3613 56.2166 44.8684 56.1989L41.4197 56.1602L39.0094 58.6247C37.9664 59.6921 36.7205 60.5402 35.3451 61.1193C33.9696 61.6984 32.4922 61.9967 30.9998 61.9967C29.5074 61.9967 28.03 61.6984 26.6546 61.1193C25.2791 60.5402 24.0332 59.6921 22.9902 58.6247L20.5799 56.1563L17.1312 56.1989C15.6383 56.2166 14.157 55.9356 12.7744 55.3724C11.3917 54.8093 10.1356 53.9753 9.07994 52.9197C8.02427 51.864 7.19033 50.6079 6.62718 49.2252C6.06402 47.8426 5.78302 46.3613 5.80069 44.8684L5.83944 41.4197L3.37494 39.0094C2.30753 37.9664 1.45937 36.7205 0.8803 35.3451C0.30123 33.9696 0.00292969 32.4922 0.00292969 30.9998C0.00292969 29.5074 0.30123 28.03 0.8803 26.6546C1.45937 25.2791 2.30753 24.0332 3.37494 22.9902L5.84331 20.5799L5.80069 17.1312C5.78302 15.6383 6.06402 14.157 6.62718 12.7744C7.19033 11.3917 8.02427 10.1356 9.07994 9.07994C10.1356 8.02427 11.3917 7.19033 12.7744 6.62718C14.157 6.06402 15.6383 5.78302 17.1312 5.80069L20.5799 5.83944L22.9902 3.37494C24.0332 2.30753 25.2791 1.45937 26.6546 0.8803C28.03 0.30123 29.5074 0.00292969 30.9998 0.00292969C32.4922 0.00292969 33.9696 0.30123 35.3451 0.8803C36.7205 1.45937 37.9664 2.30753 39.0094 3.37494L36.2388 6.07969C35.5567 5.38136 34.7418 4.82645 33.8421 4.4476C32.9424 4.06874 31.976 3.87357 30.9998 3.87357C30.0236 3.87357 29.0572 4.06874 28.1575 4.4476C27.2578 4.82645 26.443 5.38136 25.7608 6.07969L22.1958 9.73769L17.0808 9.67568C16.105 9.66478 15.1368 9.84899 14.2332 10.2175C13.3296 10.586 12.5088 11.1314 11.8189 11.8217C11.129 12.5119 10.5841 13.333 10.216 14.2368C9.84798 15.1406 9.66426 16.1089 9.67568 17.0847L9.73769 22.1919L6.07969 25.7608C5.38136 26.443 4.82645 27.2578 4.4476 28.1575C4.06874 29.0572 3.87357 30.0236 3.87357 30.9998C3.87357 31.976 4.06874 32.9424 4.4476 33.8421C4.82645 34.7418 5.38136 35.5567 6.07969 36.2388L9.73769 39.8038L9.67568 44.9188C9.66478 45.8946 9.84899 46.8628 10.2175 47.7664C10.586 48.67 11.1314 49.4908 11.8217 50.1807C12.5119 50.8706 13.333 51.4155 14.2368 51.7836C15.1406 52.1516 16.1089 52.3354 17.0847 52.3239L22.1919 52.2619L25.7608 55.9199C26.443 56.6183 27.2578 57.1732 28.1575 57.552C29.0572 57.9309 30.0236 58.126 30.9998 58.126C31.976 58.126 32.9424 57.9309 33.8421 57.552C34.7418 57.1732 35.5567 56.6183 36.2388 55.9199L39.8038 52.2619L44.9188 52.3239C45.8946 52.3348 46.8628 52.1506 47.7664 51.7821C48.67 51.4136 49.4908 50.8682 50.1807 50.178C50.8706 49.4877 51.4155 48.6666 51.7836 47.7628C52.1516 46.859 52.3354 45.8907 52.3239 44.9149L52.2619 39.8077L55.9199 36.2388C56.6183 35.5567 57.1732 34.7418 57.552 33.8421C57.9309 32.9424 58.126 31.976 58.126 30.9998C58.126 30.0236 57.9309 29.0572 57.552 28.1575C57.1732 27.2578 56.6183 26.443 55.9199 25.7608L52.2619 22.1958L52.3239 17.0808C52.3348 16.105 52.1506 15.1368 51.7821 14.2332C51.4136 13.3296 50.8682 12.5088 50.178 11.8189C49.4877 11.129 48.6666 10.5841 47.7628 10.216C46.859 9.84798 45.8907 9.66426 44.9149 9.67568L39.8077 9.73769Z" fill="#DC143C"/>
</svg>
