<svg width="16" height="16" viewBox="0 0 16 16" fill="none" xmlns="http://www.w3.org/2000/svg">
<rect width="16" height="15.9745" fill="white"/>
<path d="M7.38272 1.75238C7.59605 1.19061 8.40338 1.19061 8.61738 1.75238L9.99739 5.56896C10.0455 5.69329 10.1303 5.80012 10.2405 5.87534C10.3507 5.95056 10.4812 5.99064 10.6147 5.99029H14.0061C14.6327 5.99029 14.9061 6.76905 14.4134 7.15044L12.0001 9.31832C11.8919 9.40129 11.8129 9.51632 11.7744 9.6469C11.7358 9.77748 11.7397 9.9169 11.7854 10.0452L12.6667 13.7745C12.8814 14.3736 12.1867 14.8881 11.6614 14.5194L8.38338 12.4427C8.27113 12.3639 8.13726 12.3216 8.00005 12.3216C7.86284 12.3216 7.72898 12.3639 7.61672 12.4427L4.33872 14.5194C3.81405 14.8881 3.11872 14.3729 3.33338 13.7745L4.21472 10.0452C4.26044 9.9169 4.26429 9.77748 4.22572 9.6469C4.18716 9.51632 4.10816 9.40129 4.00005 9.31832L1.58672 7.15044C1.09338 6.76905 1.36805 5.99029 1.99338 5.99029H5.38472C5.51825 5.99073 5.64876 5.95069 5.759 5.87545C5.86923 5.80022 5.95399 5.69334 6.00205 5.56896L7.38205 1.75238H7.38272Z" fill="#F0C21F" stroke="#F0C21F" stroke-linecap="round" stroke-linejoin="round"/>
</svg>
