<svg width="40" height="40" viewBox="0 0 40 40" fill="none" xmlns="http://www.w3.org/2000/svg">
<circle cx="20" cy="20" r="20" fill="white"/>
<path d="M9.39045 30.6056L9.39453 30.6097C9.50267 30.7186 9.63128 30.8051 9.77296 30.8642C9.91464 30.9232 10.0666 30.9537 10.2201 30.9539C10.3493 30.9538 10.4775 30.9325 10.5998 30.8908L17.2563 28.6327L30.0297 15.8593C30.8106 15.0784 31.2493 14.0192 31.2492 12.9148C31.2492 11.8105 30.8104 10.7513 30.0295 9.97047C29.2485 9.18959 28.1894 8.75093 27.085 8.75098C25.9806 8.75102 24.9215 9.18978 24.1407 9.97072L11.3672 22.7442L9.10934 29.4005C9.03822 29.6075 9.02687 29.8303 9.07659 30.0435C9.12631 30.2566 9.23509 30.4515 9.39045 30.6056ZM25.2014 11.0314C25.7016 10.5349 26.3782 10.2569 27.083 10.2583C27.7878 10.2597 28.4633 10.5402 28.9617 11.0386C29.46 11.5369 29.7406 12.2125 29.7419 12.9172C29.7432 13.622 29.4652 14.2986 28.9688 14.7989L27.2891 16.4786L23.5216 12.7111L25.2014 11.0314ZM12.6755 23.5572L22.4609 13.7717L26.2284 17.5392L16.4429 27.3246L10.7413 29.2588L12.6755 23.5572Z" fill="#DC143C"/>
</svg>
