<svg width="60" height="60" viewBox="0 0 60 60" fill="none" xmlns="http://www.w3.org/2000/svg">
<rect width="60" height="60" rx="30" fill="#DC143C"/>
<path fill-rule="evenodd" clip-rule="evenodd" d="M28.2354 21.4086C28.958 20.1633 30.7564 20.1633 31.4789 21.4086L33.6918 25.2222C33.8958 25.5737 34.2484 25.8136 34.6502 25.8743L38.3248 26.4293C39.9266 26.6712 40.4885 28.6936 39.241 29.7271L36.5636 31.9453C36.1878 32.2566 36.0111 32.7477 36.1024 33.2271L36.8524 37.1657C37.1462 38.7085 35.5266 39.9072 34.1369 39.1755L30.4812 37.2506C30.0906 37.0449 29.6238 37.0449 29.2332 37.2506L25.5775 39.1755C24.1878 39.9072 22.5682 38.7085 22.862 37.1657L23.612 33.2271C23.7033 32.7477 23.5266 32.2566 23.1508 31.9453L20.4734 29.7271C19.2259 28.6936 19.7878 26.6712 21.3896 26.4293L25.0642 25.8743C25.466 25.8136 25.8186 25.5737 26.0226 25.2222L28.2354 21.4086ZM30.0889 22.2152C29.9856 22.0373 29.7287 22.0373 29.6255 22.2152L27.4126 26.0288C26.9639 26.8021 26.1883 27.3299 25.3042 27.4634L21.6296 28.0184C21.4008 28.053 21.3205 28.3419 21.4987 28.4895L24.1761 30.7077C25.0028 31.3927 25.3916 32.4731 25.1908 33.5278L24.4408 37.4663C24.3988 37.6867 24.6302 37.858 24.8287 37.7534L28.4844 35.8285C29.3437 35.3761 30.3707 35.3761 31.2299 35.8285L34.8857 37.7534C35.0842 37.858 35.3156 37.6867 35.2736 37.4663L34.5236 33.5278C34.3228 32.4731 34.7115 31.3927 35.5383 30.7077L38.2157 28.4895C38.3939 28.3419 38.3136 28.053 38.0848 28.0184L34.4102 27.4634C33.5261 27.3299 32.7505 26.8021 32.3018 26.0288L30.0889 22.2152Z" fill="white"/>
</svg>
