<svg width="10" height="16" viewBox="0 0 10 16" fill="none" xmlns="http://www.w3.org/2000/svg">
<g clip-path="url(#clip0_55_3184)">
<path d="M9.7647 9.09434C9.74522 9.03981 9.72205 8.98666 9.69536 8.93526L9.6987 8.94258C9.60136 8.71561 8.8187 7.20602 8.68803 7.00035L5.05403 -0.000488281L1.32736 7.17207C1.2007 7.37841 0.50603 8.71628 0.41003 8.94258L0.37203 9.02645C0.124179 9.62956 -0.00222789 10.2755 2.97145e-05 10.9274C2.97145e-05 12.2659 0.532573 13.5495 1.48051 14.4959C2.42844 15.4423 3.71411 15.974 5.0547 15.974C6.39528 15.974 7.68095 15.4423 8.62889 14.4959C9.57682 13.5495 10.1094 12.2659 10.1094 10.9274V10.9234L10.11 10.8562C10.11 10.2205 9.98336 9.61418 9.75336 9.06173L9.7647 9.09301V9.09434ZM5.0567 14.6555C4.41008 14.6556 3.77458 14.4876 3.21275 14.168C2.65092 13.8485 2.18213 13.3883 1.85254 12.8329C1.52296 12.2775 1.34393 11.6459 1.33308 11.0004C1.32224 10.3549 1.47995 9.71773 1.7907 9.15158L1.7807 9.17088C1.73186 9.43007 1.70731 9.69323 1.70736 9.95696V9.95763C1.70807 11.1395 2.17861 12.2727 3.01562 13.1083C3.85263 13.944 4.98765 14.4138 6.17136 14.4145C6.2467 14.4145 6.32736 14.4145 6.40203 14.4105C5.97594 14.574 5.52316 14.6571 5.0667 14.6555H5.05136H5.05203H5.0567Z" fill="#DC143C"/>
</g>
<defs>
<clipPath id="clip0_55_3184">
<rect width="10" height="15.9745" fill="white"/>
</clipPath>
</defs>
</svg>
