<svg width="24" height="24" viewBox="0 0 24 24" fill="none" xmlns="http://www.w3.org/2000/svg">
<path d="M9.06801 3.22802C7.70451 3.07563 6.29547 3.07563 4.93198 3.22802C4.0548 3.32605 3.3455 4.01681 3.24205 4.90124C3.07896 6.29566 3.07896 7.70434 3.24205 9.09875C3.3455 9.98319 4.0548 10.6739 4.93198 10.772C6.29547 10.9244 7.70451 10.9244 9.06801 10.772C9.94519 10.6739 10.6545 9.98319 10.7579 9.09875C10.921 7.70434 10.921 6.29566 10.7579 4.90124C10.6545 4.01681 9.94519 3.32605 9.06801 3.22802Z" fill="black"/>
<path d="M9.06801 13.228C7.70451 13.0756 6.29547 13.0756 4.93198 13.228C4.0548 13.3261 3.3455 14.0168 3.24205 14.9012C3.07896 16.2957 3.07896 17.7043 3.24205 19.0988C3.3455 19.9832 4.0548 20.6739 4.93198 20.772C6.29547 20.9244 7.70451 20.9244 9.06801 20.772C9.94519 20.6739 10.6545 19.9832 10.7579 19.0988C10.921 17.7043 10.921 16.2957 10.7579 14.9012C10.6545 14.0168 9.94519 13.3261 9.06801 13.228Z" fill="black"/>
<path d="M19.068 3.22802C17.7045 3.07563 16.2955 3.07563 14.932 3.22802C14.0548 3.32605 13.3455 4.01681 13.2421 4.90124C13.079 6.29566 13.079 7.70434 13.2421 9.09875C13.3455 9.98319 14.0548 10.6739 14.932 10.772C16.2955 10.9244 17.7045 10.9244 19.068 10.772C19.9452 10.6739 20.6545 9.98319 20.7579 9.09875C20.921 7.70434 20.921 6.29566 20.7579 4.90124C20.6545 4.01681 19.9452 3.32605 19.068 3.22802Z" fill="black"/>
<path d="M19.068 13.228C17.7045 13.0756 16.2955 13.0756 14.932 13.228C14.0548 13.3261 13.3455 14.0168 13.2421 14.9012C13.079 16.2957 13.079 17.7043 13.2421 19.0988C13.3455 19.9832 14.0548 20.6739 14.932 20.772C16.2955 20.9244 17.7045 20.9244 19.068 20.772C19.9452 20.6739 20.6545 19.9832 20.7579 19.0988C20.921 17.7043 20.921 16.2957 20.7579 14.9012C20.6545 14.0168 19.9452 13.3261 19.068 13.228Z" fill="black"/>
</svg>
