<svg width="24" height="23" viewBox="0 0 24 23" fill="none" xmlns="http://www.w3.org/2000/svg">
<path fill-rule="evenodd" clip-rule="evenodd" d="M5.30379 0C5.85852 0 6.30823 0.447219 6.30823 0.998892V3.21993C10.0953 2.88454 13.9048 2.88454 17.6919 3.21994V0.998892C17.6919 0.447219 18.1416 0 18.6963 0C19.251 0 19.7007 0.447219 19.7007 0.998892V3.41812C21.7003 3.69929 23.28 5.27211 23.5474 7.27837L23.6633 8.14801C24.1508 11.8057 24.1087 15.514 23.5383 19.1599C23.2557 20.9659 21.7803 22.3531 19.9512 22.5325L18.3535 22.6892C14.1281 23.1036 9.87193 23.1036 5.64654 22.6892L4.04881 22.5325C2.21974 22.3531 0.744338 20.9659 0.461743 19.1599C-0.108721 15.514 -0.150828 11.8057 0.336707 8.14801L0.452621 7.27837C0.720038 5.27209 2.29975 3.69924 4.29935 3.41811V0.998892C4.29935 0.447219 4.74905 0 5.30379 0ZM5.89997 5.26456C9.95681 4.8667 14.0432 4.8667 18.1 5.26456L19.3127 5.38349C20.4734 5.49733 21.4027 6.39096 21.5559 7.54089L21.6718 8.41053C21.7123 8.71434 21.749 9.01851 21.7818 9.32299H2.21824C2.25103 9.01851 2.28767 8.71434 2.32816 8.41053L2.44408 7.54089C2.59735 6.39096 3.52655 5.49733 4.68735 5.38349L5.89997 5.26456ZM2.05856 11.3208C1.92707 13.8354 2.05661 16.3595 2.44673 18.8527C2.58848 19.7586 3.32852 20.4544 4.24596 20.5444L5.84369 20.7011C9.93797 21.1026 14.062 21.1026 18.1563 20.7011L19.754 20.5444C20.6715 20.4544 21.4115 19.7586 21.5533 18.8527C21.9434 16.3595 22.0729 13.8354 21.9414 11.3208H2.05856Z" fill="#DC143C"/>
</svg>
