<svg width="24" height="24" viewBox="0 0 24 24" fill="none" xmlns="http://www.w3.org/2000/svg">
<path fill-rule="evenodd" clip-rule="evenodd" d="M13.0527 2.40691C16.3336 2.92494 18.75 5.75281 18.75 9.07431L18.75 14.9256C18.75 18.2471 16.3336 21.075 13.0527 21.593C12.3552 21.7032 11.6448 21.7032 10.9473 21.593C7.6664 21.075 5.25 18.2471 5.25 14.9256V9.07431C5.25 5.75281 7.6664 2.92494 10.9473 2.40691C11.6448 2.29678 12.3552 2.29678 13.0527 2.40691ZM17.25 9.07431C17.25 6.49092 15.3706 4.29147 12.8188 3.88855C12.7959 3.88494 12.773 3.88147 12.75 3.87816L12.75 9.24998H17.25V9.07431ZM11.25 9.24998H6.75V9.07431C6.75 6.49092 8.62943 4.29147 11.1812 3.88855C11.2041 3.88494 11.227 3.88147 11.25 3.87816L11.25 9.24998ZM6.75 14.9256L6.75 10.75H17.25L17.25 14.9256C17.25 17.509 15.3706 19.7085 12.8188 20.1114C12.2763 20.1971 11.7237 20.1971 11.1812 20.1114C8.62942 19.7085 6.75 17.509 6.75 14.9256Z" fill="black"/>
</svg>
