<svg width="32" height="32" viewBox="0 0 32 32" fill="none" xmlns="http://www.w3.org/2000/svg">
<rect width="32" height="32" fill="white"/>
<path d="M14.7654 3.5105C15.1921 2.38517 16.8068 2.38517 17.2348 3.5105L19.9948 11.1558C20.0911 11.4049 20.2606 11.6189 20.481 11.7696C20.7015 11.9202 20.9624 12.0005 21.2294 11.9998H28.0121C29.2654 11.9998 29.8121 13.5598 28.8268 14.3238L24.0001 18.6665C23.7839 18.8327 23.6259 19.0631 23.5488 19.3247C23.4716 19.5863 23.4793 19.8656 23.5708 20.1225L25.3334 27.5932C25.7628 28.7932 24.3734 29.8238 23.3228 29.0852L16.7668 24.9252C16.5423 24.7674 16.2745 24.6827 16.0001 24.6827C15.7257 24.6827 15.458 24.7674 15.2334 24.9252L8.67744 29.0852C7.6281 29.8238 6.23744 28.7918 6.66677 27.5932L8.42944 20.1225C8.52087 19.8656 8.52858 19.5863 8.45145 19.3247C8.37432 19.0631 8.21631 18.8327 8.0001 18.6665L3.17344 14.3238C2.18677 13.5598 2.7361 11.9998 3.98677 11.9998H10.7694C11.0365 12.0007 11.2975 11.9205 11.518 11.7698C11.7385 11.6191 11.908 11.405 12.0041 11.1558L14.7641 3.5105H14.7654Z" stroke="#1B1D1F" stroke-linecap="round" stroke-linejoin="round"/>
</svg>
