<svg width="34" height="34" viewBox="0 0 34 34" fill="none" xmlns="http://www.w3.org/2000/svg">
<path d="M18.6392 12.7031C19.1015 12.7031 19.499 13.0488 19.5635 13.5074C19.5728 13.5728 19.5747 13.638 19.5703 13.7023H19.7623L20.4053 14.9283H14.9264L14.8607 15.0819L18.0209 16.7353C18.6079 17.0426 18.8861 17.7229 18.6818 18.3533L17.2493 22.7762C17.0678 23.3369 16.5497 23.7138 15.9605 23.7138C15.8194 23.7138 15.6788 23.6915 15.5429 23.6476C15.1985 23.5361 14.9184 23.2972 14.7536 22.9749C14.589 22.6527 14.5597 22.2855 14.6714 21.9413L15.7514 18.6063L13.0002 17.1668H12.8053L13.4603 17.5805C13.8359 17.8174 14.0362 18.2546 13.9705 18.6942L13.379 22.6542C13.4121 22.777 13.4405 22.9021 13.4634 23.0298H13.2857C13.1127 23.434 12.7096 23.7145 12.2553 23.7145C12.2 23.7145 12.1436 23.7103 12.0883 23.7018C11.7923 23.6577 11.5311 23.5007 11.3529 23.26C11.1748 23.0191 11.1011 22.7236 11.1453 22.4271L11.3819 20.8434C10.6001 20.0547 9.51668 19.5655 8.31766 19.565C5.93263 19.5658 4 21.4979 4 23.8827C4 25.5958 4.99962 27.0706 6.44589 27.7684C7.0123 28.0417 7.64603 28.1993 8.31712 28.1998C10.4099 28.1988 12.153 26.7108 12.5486 24.7355H18.5404L21.9869 17.9458L23.2383 20.3331C22.1133 21.1122 21.3751 22.4104 21.3751 23.8829C21.3751 26.2673 23.3078 28.1989 25.6924 28.2001C28.0766 28.1992 30.0088 26.2674 30.0088 23.8829C30.0088 21.4983 28.0765 19.566 25.6924 19.5656C25.2368 19.5656 24.7986 19.6372 24.3866 19.7681L20.5355 12.4241H17.6444V12.8028C17.9127 12.7864 18.2014 12.7565 18.5076 12.7131C18.5512 12.7068 18.5957 12.7037 18.6392 12.7037L18.6392 12.7031ZM10.7819 24.7352C10.4271 25.757 9.45957 26.4915 8.31689 26.4931C6.87452 26.4912 5.70774 25.3239 5.70479 23.8823C5.70771 22.4396 6.87465 21.2733 8.31689 21.2702C9.45957 21.2728 10.4276 22.007 10.7819 23.0296H8.21042V24.735L10.7819 24.7352ZM24.0402 21.8616L25.3389 24.3392L26.4719 23.7454L25.1997 21.3192C25.3593 21.2882 25.524 21.2708 25.6925 21.2704C27.1341 21.2735 28.3017 22.4397 28.3032 23.8825C28.3017 25.3241 27.1341 26.4914 25.6925 26.4934C24.25 26.4914 23.0834 25.3241 23.0804 23.8825C23.0819 23.0671 23.4554 22.3405 24.0402 21.8616L24.0402 21.8616Z" fill="#DC143C"/>
<path d="M9.5925 17.7905L8.97998 18.4819L5.84986 18.1705L5.74613 17.3682L4.90625 18.7832H10.1962C10.5723 19.0229 11.055 19.3677 11.536 19.811L11.6443 19.0863L9.5925 17.7905Z" fill="#DC143C"/>
<path d="M23.9604 15.9939V13.3823C23.2391 13.3823 22.6545 13.967 22.6545 14.6883C22.6545 14.8164 22.6787 14.938 22.713 15.0555C22.8727 15.5963 23.3674 15.9939 23.9604 15.9939L23.9604 15.9939Z" fill="#DC143C"/>
<path d="M18.8942 5.25532C19.9142 5.80926 20.292 7.08529 19.7379 8.1053C19.1838 9.12531 17.9078 9.50301 16.8878 8.9489C15.8678 8.3948 15.4901 7.11876 16.044 6.09892C16.5981 5.07892 17.8742 4.70121 18.8942 5.25532Z" fill="#DC143C"/>
<path d="M13.875 13.172C13.8317 13.089 13.7932 13.004 13.7612 12.917C13.6487 12.621 13.5913 12.2939 13.5911 11.9465C13.595 11.5536 13.6668 10.9449 13.9871 10.2639C13.9923 10.2526 13.9963 10.2444 13.9988 10.239L14.001 10.2334L14.0057 10.2238C14.1661 9.90841 14.4855 9.71276 14.8391 9.71276C14.987 9.71276 15.1293 9.7469 15.2622 9.81422C15.7195 10.0469 15.9038 10.609 15.6735 11.0673C15.6656 11.0834 15.6582 11.1006 15.648 11.1237C15.6327 11.159 15.6022 11.2335 15.5701 11.331C15.5002 11.5422 15.4591 11.7717 15.4599 11.9453C15.4599 12.0648 15.4769 12.1713 15.5086 12.2543C15.5221 12.2883 15.5374 12.3205 15.5585 12.3528C15.7497 11.9652 15.9375 11.6026 16.0996 11.277C16.605 10.4515 16.5624 9.28535 15.8463 8.88192C15.1301 8.47848 13.9002 8.58901 13.0834 9.78315C12.5945 10.5069 12.232 11.1339 11.9524 11.7843C12.4376 12.476 13.0718 12.9336 13.8749 13.172L13.875 13.172Z" fill="#DC143C"/>
<path d="M12.5516 16.7212L15.9779 18.5138L14.8491 21.9988C14.6502 22.6126 14.9865 23.2711 15.6003 23.4698C15.7198 23.5087 15.8413 23.527 15.9604 23.527C16.4532 23.527 16.9113 23.2127 17.0713 22.7186L18.5039 18.2957C18.6799 17.7525 18.4401 17.1657 17.9342 16.9009L14.4811 15.0943C14.5086 14.9821 14.5398 14.87 14.5725 14.7581C14.5039 14.7792 14.4317 14.791 14.3573 14.791C14.3202 14.791 14.2828 14.7881 14.2458 14.7826C12.9503 14.5924 12.0386 14.028 11.4192 13.4456C11.3348 13.8131 11.2613 14.2078 11.194 14.6437C11.0907 15.9857 11.8131 16.4748 12.5516 16.7213L12.5516 16.7212Z" fill="#DC143C"/>
<path d="M11.3293 22.4547C11.2531 22.965 11.6049 23.4407 12.1155 23.5171C12.1623 23.524 12.2087 23.5274 12.2547 23.5274C12.7097 23.5274 13.1085 23.1946 13.1777 22.7309L13.7849 18.6664C13.8394 18.3012 13.6718 17.9351 13.3598 17.7382L10.9734 16.2312L9.71777 17.6485L11.8466 18.9928L11.3293 22.4547Z" fill="#DC143C"/>
<path d="M13.7664 6.89769C13.7805 7.92967 12.9554 8.7775 11.9234 8.79158C10.8914 8.80567 10.0436 7.9805 10.0295 6.94852C10.0154 5.91654 10.8406 5.06871 11.8725 5.05462C12.9045 5.04054 13.7524 5.86571 13.7664 6.89769Z" fill="#DC143C"/>
<path d="M6.05234 17.9519L8.86817 18.2678L11.0399 15.8232L9.40173 14.5335L9.12306 14.3141C9.39541 13.9158 9.73557 13.4838 10.1688 13.0295C10.4301 13.1412 10.7146 13.1203 10.9794 12.9767C10.809 12.7704 10.674 12.5746 10.5708 12.4064C10.0204 11.5206 9.85044 10.7069 9.81146 10.4786L9.81113 10.477L9.80935 10.4664C9.77942 10.269 9.82829 10.0717 9.94659 9.91088C10.0652 9.75019 10.2392 9.645 10.4364 9.61538C10.4737 9.60956 10.5117 9.60681 10.5492 9.60681C10.9151 9.60681 11.2325 9.87998 11.2876 10.2423L11.2899 10.2556C11.2925 10.2692 11.2978 10.2952 11.3054 10.3297C11.32 10.3957 11.3464 10.5022 11.3883 10.6349C11.4642 10.8743 11.604 11.2385 11.84 11.6163C11.8458 11.6255 11.8519 11.6339 11.8578 11.643C11.8718 11.5828 11.8846 11.5222 11.8948 11.4611C11.9421 11.1782 11.9495 10.8885 11.9157 10.6126C11.8391 9.47919 11.3732 9.12688 10.6668 8.89948C10.3453 8.79623 9.61493 8.8909 9.08221 9.4018C8.1601 10.2864 9.33385 11.9682 6.32122 13.5416C5.50558 13.9675 5.34314 14.6622 5.49671 15.2973L5.49833 15.3053L6.05234 17.9519Z" fill="#DC143C"/>
<path d="M14.2732 14.5973C14.3013 14.6015 14.3293 14.6036 14.357 14.6036C14.6054 14.6036 14.8242 14.4373 14.893 14.1978C14.5354 14.0013 14.231 13.7247 14.0118 13.4015C12.8002 13.1005 12.1157 12.3992 11.6813 11.7153C11.4441 11.3355 11.2965 10.9637 11.2104 10.6916C11.1674 10.5554 11.1394 10.4446 11.123 10.3705C11.1148 10.3336 11.1093 10.3056 11.106 10.2886C11.1044 10.28 11.1034 10.2742 11.103 10.271V10.2708C11.0564 9.96445 10.7707 9.75389 10.4646 9.80037C10.1585 9.84666 9.94799 10.1324 9.99414 10.4386C10.0026 10.4841 10.1328 11.3478 10.7298 12.3089C11.3195 13.2673 12.4326 14.3274 14.2732 14.5973L14.2732 14.5973Z" fill="#DC143C"/>
<path d="M15.3342 12.3208C15.2939 12.2158 15.2732 12.0879 15.2732 11.946C15.2719 11.7186 15.33 11.4619 15.3926 11.2726C15.4237 11.1779 15.4547 11.0996 15.4767 11.0486C15.4879 11.0231 15.4963 11.0041 15.5017 10.9933C15.5031 10.9901 15.5044 10.9875 15.5052 10.9857H15.5054C15.5057 10.9852 15.5059 10.9847 15.5062 10.9842C15.5063 10.9839 15.5065 10.9838 15.5065 10.9834V10.9833C15.5067 10.9831 15.5067 10.9831 15.5067 10.9829C15.6916 10.6154 15.5449 10.1672 15.1777 9.98042C14.8097 9.79351 14.3598 9.93996 14.1727 10.3081H14.1725C14.152 10.3627 13.7875 11.0388 13.7783 11.9457C13.7785 12.2287 13.8183 12.5391 13.9371 12.8519C14.1102 13.3225 14.4887 13.7802 15.0409 14.0646C15.5929 14.3534 16.2912 14.4964 17.1876 14.4974C17.6478 14.4972 18.1624 14.4589 18.7429 14.377C19.1516 14.3192 19.4364 13.9411 19.3788 13.5325C19.3212 13.1236 18.943 12.8391 18.5343 12.8965C18.011 12.9705 17.564 13.0024 17.1878 13.0024C16.2004 13.0027 15.7306 12.7818 15.5332 12.6044C15.4303 12.5133 15.3757 12.4267 15.3341 12.3207L15.3342 12.3208Z" fill="#DC143C"/>
</svg>
