<svg width="24" height="24" viewBox="0 0 24 24" fill="none" xmlns="http://www.w3.org/2000/svg">
<path d="M14.6096 4.84571C14.5115 4.06108 13.5846 3.69531 12.9771 4.20152L7.95804 8.38411C7.86818 8.45899 7.75492 8.5 7.63795 8.5H3.75C3.05964 8.5 2.5 9.05964 2.5 9.75V14.25C2.5 14.9404 3.05964 15.5 3.75 15.5H7.63795C7.75492 15.5 7.86818 15.541 7.95804 15.6159L12.9771 19.7985C13.5846 20.3047 14.5115 19.9389 14.6096 19.1543L14.7054 18.3878C15.2357 14.1458 15.2357 9.85423 14.7054 5.61221L14.6096 4.84571Z" fill="black"/>
<path d="M19.9082 5.94577C20.3014 5.8157 20.7257 6.02906 20.8557 6.42233C21.4362 8.17729 21.75 10.0528 21.75 12C21.75 13.9473 21.4362 15.8227 20.8557 17.5777C20.7257 17.9709 20.3014 18.1843 19.9082 18.0542C19.5149 17.9242 19.3015 17.4999 19.4316 17.1067C19.9624 15.5017 20.25 13.7852 20.25 12C20.25 10.2148 19.9624 8.49827 19.4316 6.89334C19.3015 6.50008 19.5149 6.07584 19.9082 5.94577Z" fill="black"/>
<path d="M18.0323 7.9477C17.8894 7.5589 17.4584 7.35952 17.0696 7.50237C16.6808 7.64522 16.4815 8.07621 16.6243 8.46501C17.0288 9.56595 17.25 10.7563 17.25 12C17.25 13.0316 17.0978 14.0263 16.8152 14.9637C16.7995 15.0159 16.7833 15.0679 16.7668 15.1198C16.7222 15.2595 16.6747 15.3979 16.6243 15.535C16.4815 15.9238 16.6808 16.3548 17.0696 16.4976C17.4584 16.6405 17.8894 16.4411 18.0323 16.0523C18.0901 15.895 18.1446 15.7362 18.1958 15.5759C18.2148 15.5163 18.2333 15.4566 18.2514 15.3967C18.5758 14.3204 18.75 13.1799 18.75 12C18.75 10.5772 18.4968 9.21187 18.0323 7.9477Z" fill="black"/>
</svg>
