<svg width="24" height="24" viewBox="0 0 24 24" fill="none" xmlns="http://www.w3.org/2000/svg">
<path d="M12 1.49756C9.81275 1.50013 7.71583 2.36877 6.16921 3.91293C4.6226 5.45708 3.75257 7.55066 3.74999 9.73442C3.74737 11.519 4.33123 13.2551 5.41199 14.6765C5.41199 14.6765 5.63699 14.9723 5.67374 15.015L12 22.4641L18.3292 15.0113C18.3622 14.9716 18.588 14.6765 18.588 14.6765L18.5887 14.6743C19.669 13.2535 20.2526 11.5182 20.25 9.73442C20.2474 7.55066 19.3774 5.45708 17.8308 3.91293C16.2842 2.36877 14.1872 1.50013 12 1.49756V1.49756ZM12 12.7296C11.4066 12.7296 10.8266 12.554 10.3333 12.2249C9.83994 11.8957 9.45542 11.4279 9.22835 10.8806C9.00129 10.3333 8.94188 9.7311 9.05764 9.15008C9.17339 8.56907 9.45912 8.03537 9.87867 7.61648C10.2982 7.19759 10.8328 6.91232 11.4147 6.79675C11.9967 6.68118 12.5999 6.74049 13.148 6.9672C13.6962 7.1939 14.1648 7.5778 14.4944 8.07037C14.824 8.56293 15 9.14202 15 9.73442C14.999 10.5285 14.6826 11.2898 14.1202 11.8513C13.5578 12.4128 12.7953 12.7287 12 12.7296V12.7296Z" fill="#DC143C"/>
</svg>
