<svg width="337" height="138" viewBox="0 0 337 138" fill="none" xmlns="http://www.w3.org/2000/svg">
<path d="M0 138V78.3144C0 78.3144 35.7685 110.414 50.7688 109.913C65.7692 109.411 74.4026 62.2646 91.4714 62.2646C108.54 62.2646 117.077 110.414 132.174 109.913C147.271 109.411 159.747 33.1739 170.688 33.1739C181.63 33.1739 195.407 102.598 216.205 98.8784C224.253 97.4392 239.687 74.9536 248.155 51.2301C256.753 27.1402 258.392 1.80522 267.412 0.0715106C281.016 -2.54333 298.02 67.4341 308.99 65.2737C326.874 61.7517 337 30.1648 337 35.6819V138H0Z" fill="#5D5FEF" fill-opacity="0.5"/>
</svg>
